<svg width="71" height="49" viewBox="0 0 71 49" fill="none" xmlns="http://www.w3.org/2000/svg">
<rect x="0.900391" y="1.09009" width="69.6" height="47" rx="9.5" fill="white"/>
<rect x="0.900391" y="1.09009" width="69.6" height="47" rx="9.5" stroke="#07194B" stroke-dasharray="16 16"/>
<g clip-path="url(#clip0_351_4338)">
<path d="M47.7002 31.5901C47.7002 32.1431 47.2522 32.5901 46.7002 32.5901H43.7002V35.5901C43.7002 36.1431 43.2522 36.5901 42.7002 36.5901C42.1482 36.5901 41.7002 36.1431 41.7002 35.5901V32.5901H38.7002C38.1482 32.5901 37.7002 32.1431 37.7002 31.5901C37.7002 31.0371 38.1482 30.5901 38.7002 30.5901H41.7002V27.5901C41.7002 27.0371 42.1482 26.5901 42.7002 26.5901C43.2522 26.5901 43.7002 27.0371 43.7002 27.5901V30.5901H46.7002C47.2522 30.5901 47.7002 31.0371 47.7002 31.5901ZM39.7002 19.5901C40.2512 19.5901 40.7002 19.1421 40.7002 18.5901C40.7002 18.0381 40.2512 17.5901 39.7002 17.5901C39.1492 17.5901 38.7002 18.0381 38.7002 18.5901C38.7002 19.1421 39.1492 19.5901 39.7002 19.5901ZM28.5082 21.7411L23.7002 26.5491V17.5901C23.7002 14.8331 25.9432 12.5901 28.7002 12.5901H40.7002C43.4572 12.5901 45.7002 14.8331 45.7002 17.5901V24.5901H42.7002C41.1152 24.5901 39.8152 25.8251 39.7082 27.3831L34.0662 21.7411C32.5332 20.2081 30.0402 20.2081 28.5082 21.7411ZM36.7002 18.5901C36.7002 20.2441 38.0462 21.5901 39.7002 21.5901C41.3542 21.5901 42.7002 20.2441 42.7002 18.5901C42.7002 16.9361 41.3542 15.5901 39.7002 15.5901C38.0462 15.5901 36.7002 16.9361 36.7002 18.5901ZM35.7002 31.5901C35.7002 30.1271 36.7522 28.9061 38.1402 28.6431L32.6522 23.1551C31.9002 22.4041 30.6762 22.4031 29.9222 23.1551L23.7002 29.3771V29.5901C23.7002 32.3471 25.9432 34.5901 28.7002 34.5901H35.7002V31.5901Z" fill="#07194B"/>
</g>
<defs>
<clipPath id="clip0_351_4338">
<rect width="24" height="24" fill="white" transform="translate(23.7002 12.5901)"/>
</clipPath>
</defs>
</svg>
