<svg width="12" height="22" viewBox="0 0 12 22" fill="none" xmlns="http://www.w3.org/2000/svg">
<path d="M11.7808 11.53L1.78082 21.53C1.63865 21.6625 1.4506 21.7346 1.2563 21.7311C1.062 21.7277 0.876615 21.649 0.739202 21.5116C0.601789 21.3742 0.523076 21.1888 0.519648 20.9945C0.51622 20.8002 0.588344 20.6121 0.720824 20.47L10.1896 11L0.720824 1.52997C0.588344 1.38779 0.51622 1.19975 0.519648 1.00545C0.523076 0.811145 0.601789 0.62576 0.739202 0.488347C0.876615 0.350934 1.062 0.272222 1.2563 0.268794C1.4506 0.265365 1.63865 0.337488 1.78082 0.469968L11.7808 10.47C11.9213 10.6106 12.0002 10.8012 12.0002 11C12.0002 11.1987 11.9213 11.3893 11.7808 11.53Z" fill="#07194B"/>
</svg>
