<svg width="26" height="25" viewBox="0 0 26 25" fill="none" xmlns="http://www.w3.org/2000/svg">
<path d="M23.2964 7.78595L13.2964 17.786C13.1558 17.9264 12.9652 18.0053 12.7664 18.0053C12.5677 18.0053 12.3771 17.9264 12.2364 17.786L2.23645 7.78595C2.10397 7.64378 2.03184 7.45573 2.03527 7.26143C2.0387 7.06713 2.11741 6.88174 2.25483 6.74433C2.39224 6.60692 2.57762 6.5282 2.77193 6.52478C2.96623 6.52135 3.15427 6.59347 3.29645 6.72595L12.7664 16.1947L22.2364 6.72595C22.3786 6.59347 22.5667 6.52135 22.761 6.52478C22.9553 6.5282 23.1407 6.60692 23.2781 6.74433C23.4155 6.88174 23.4942 7.06713 23.4976 7.26143C23.5011 7.45573 23.4289 7.64378 23.2964 7.78595Z" fill="#07194B"/>
</svg>
