<svg width="25" height="24" viewBox="0 0 25 24" fill="none" xmlns="http://www.w3.org/2000/svg">
<path d="M4.32698 6.63803L4.99524 6.97852L4.32698 6.63803ZM4.7682 20.2318L4.23787 19.7015H4.23787L4.7682 20.2318ZM18.362 16.673L18.7025 17.3413L18.7025 17.3413L18.362 16.673ZM19.673 15.362L20.3413 15.7025L20.3413 15.7025L19.673 15.362ZM19.673 6.63803L20.3413 6.29754L20.3413 6.29754L19.673 6.63803ZM18.362 5.32698L18.7025 4.65873L18.7025 4.65873L18.362 5.32698ZM5.63803 5.32698L5.97852 5.99524L5.63803 5.32698ZM7.70711 17.2929L7.17678 16.7626L7.70711 17.2929ZM4.75 9.8C4.75 8.94755 4.75058 8.35331 4.78838 7.89068C4.82546 7.4368 4.8946 7.17604 4.99524 6.97852L3.65873 6.29754C3.43238 6.74175 3.33803 7.22189 3.29336 7.76853C3.24942 8.30641 3.25 8.9723 3.25 9.8H4.75ZM4.75 12V9.8H3.25V12H4.75ZM3.25 12V17H4.75V12H3.25ZM3.25 17V19.9136H4.75V17H3.25ZM3.25 19.9136C3.25 20.9827 4.54257 21.5181 5.29853 20.7621L4.23787 19.7015C4.42686 19.5125 4.75 19.6463 4.75 19.9136H3.25ZM5.29853 20.7621L8.23744 17.8232L7.17678 16.7626L4.23787 19.7015L5.29853 20.7621ZM15.2 16.25H8.41421V17.75H15.2V16.25ZM18.0215 16.0048C17.824 16.1054 17.5632 16.1745 17.1093 16.2116C16.6467 16.2494 16.0525 16.25 15.2 16.25V17.75C16.0277 17.75 16.6936 17.7506 17.2315 17.7066C17.7781 17.662 18.2582 17.5676 18.7025 17.3413L18.0215 16.0048ZM19.0048 15.0215C18.7891 15.4448 18.4448 15.7891 18.0215 16.0048L18.7025 17.3413C19.4081 16.9817 19.9817 16.4081 20.3413 15.7025L19.0048 15.0215ZM19.25 12.2C19.25 13.0525 19.2494 13.6467 19.2116 14.1093C19.1745 14.5632 19.1054 14.824 19.0048 15.0215L20.3413 15.7025C20.5676 15.2582 20.662 14.7781 20.7066 14.2315C20.7506 13.6936 20.75 13.0277 20.75 12.2H19.25ZM19.25 9.8V12.2H20.75V9.8H19.25ZM19.0048 6.97852C19.1054 7.17604 19.1745 7.4368 19.2116 7.89068C19.2494 8.35331 19.25 8.94755 19.25 9.8H20.75C20.75 8.9723 20.7506 8.30641 20.7066 7.76853C20.662 7.2219 20.5676 6.74175 20.3413 6.29754L19.0048 6.97852ZM18.0215 5.99524C18.4448 6.21095 18.7891 6.55516 19.0048 6.97852L20.3413 6.29754C19.9817 5.59193 19.4081 5.01825 18.7025 4.65873L18.0215 5.99524ZM15.2 5.75C16.0525 5.75 16.6467 5.75058 17.1093 5.78838C17.5632 5.82546 17.824 5.8946 18.0215 5.99524L18.7025 4.65873C18.2582 4.43238 17.7781 4.33803 17.2315 4.29336C16.6936 4.24942 16.0277 4.25 15.2 4.25V5.75ZM8.8 5.75H15.2V4.25H8.8V5.75ZM5.97852 5.99524C6.17604 5.8946 6.4368 5.82546 6.89068 5.78838C7.35331 5.75058 7.94755 5.75 8.8 5.75V4.25C7.9723 4.25 7.30641 4.24942 6.76853 4.29336C6.22189 4.33803 5.74175 4.43238 5.29754 4.65873L5.97852 5.99524ZM4.99524 6.97852C5.21095 6.55516 5.55516 6.21095 5.97852 5.99524L5.29754 4.65873C4.59193 5.01825 4.01825 5.59193 3.65873 6.29754L4.99524 6.97852ZM8.23744 17.8232C8.28432 17.7763 8.34791 17.75 8.41421 17.75V16.25C7.95009 16.25 7.50497 16.4344 7.17678 16.7626L8.23744 17.8232Z" fill="#07194B"/>
<path d="M8 9L16 9" stroke="#07194B" stroke-width="1.5" stroke-linecap="round" stroke-linejoin="round"/>
<path d="M8 13L13 13" stroke="#07194B" stroke-width="1.5" stroke-linecap="round" stroke-linejoin="round"/>
</svg>
