<svg width="20" height="19" viewBox="0 0 20 19" fill="none" xmlns="http://www.w3.org/2000/svg">
<path d="M5.5 0.5C5.5 0.223858 5.27614 0 5 0C4.72386 0 4.5 0.223858 4.5 0.5H5.5ZM15.5 0.5C15.5 0.223858 15.2761 0 15 0C14.7239 0 14.5 0.223858 14.5 0.5H15.5ZM5 4H15V3H5V4ZM18.5 7.5V14.5H19.5V7.5H18.5ZM15 18H5V19H15V18ZM1.5 14.5V7.5H0.5V14.5H1.5ZM5 18C4.04306 18 3.37565 17.9989 2.87208 17.9312C2.3829 17.8655 2.12385 17.7452 1.93934 17.5607L1.23223 18.2678C1.63351 18.669 2.13876 18.8416 2.73883 18.9223C3.32452 19.0011 4.07133 19 5 19V18ZM0.5 14.5C0.5 15.4287 0.498938 16.1755 0.577682 16.7612C0.65836 17.3612 0.830955 17.8665 1.23223 18.2678L1.93934 17.5607C1.75483 17.3762 1.63453 17.1171 1.56876 16.6279C1.50106 16.1244 1.5 15.4569 1.5 14.5H0.5ZM18.5 14.5C18.5 15.4569 18.4989 16.1244 18.4312 16.6279C18.3655 17.1171 18.2452 17.3762 18.0607 17.5607L18.7678 18.2678C19.169 17.8665 19.3416 17.3612 19.4223 16.7612C19.5011 16.1755 19.5 15.4287 19.5 14.5H18.5ZM15 19C15.9287 19 16.6755 19.0011 17.2612 18.9223C17.8612 18.8416 18.3665 18.669 18.7678 18.2678L18.0607 17.5607C17.8762 17.7452 17.6171 17.8655 17.1279 17.9312C16.6244 17.9989 15.9569 18 15 18V19ZM15 4C15.9569 4 16.6244 4.00106 17.1279 4.06876C17.6171 4.13453 17.8762 4.25483 18.0607 4.43934L18.7678 3.73223C18.3665 3.33096 17.8612 3.15836 17.2612 3.07768C16.6755 2.99894 15.9287 3 15 3V4ZM19.5 7.5C19.5 6.57133 19.5011 5.82452 19.4223 5.23883C19.3416 4.63876 19.169 4.13351 18.7678 3.73223L18.0607 4.43934C18.2452 4.62385 18.3655 4.8829 18.4312 5.37208C18.4989 5.87565 18.5 6.54306 18.5 7.5H19.5ZM5 3C4.07133 3 3.32452 2.99894 2.73883 3.07768C2.13876 3.15836 1.63351 3.33096 1.23223 3.73223L1.93934 4.43934C2.12385 4.25483 2.3829 4.13453 2.87208 4.06876C3.37565 4.00106 4.04306 4 5 4V3ZM1.5 7.5C1.5 6.54306 1.50106 5.87565 1.56876 5.37208C1.63453 4.8829 1.75483 4.62385 1.93934 4.43934L1.23223 3.73223C0.830955 4.13351 0.658359 4.63876 0.577682 5.23883C0.498938 5.82452 0.5 6.57133 0.5 7.5H1.5ZM19 7H1V8H19V7ZM4.5 0.5V3.5H5.5V0.5H4.5ZM14.5 0.5V3.5H15.5V0.5H14.5ZM6 10H8V9H6V10ZM8 11H6V12H8V11ZM6 11C5.75016 11 5.61308 10.9989 5.51799 10.9862C5.43727 10.9753 5.46484 10.9648 5.5 11L4.79289 11.7071C4.9745 11.8887 5.19314 11.9515 5.38474 11.9772C5.56196 12.0011 5.77843 12 6 12V11ZM4.5 10.5C4.5 10.7216 4.49894 10.938 4.52276 11.1153C4.54852 11.3069 4.61129 11.5255 4.79289 11.7071L5.5 11C5.53516 11.0352 5.5247 11.0627 5.51385 10.982C5.50106 10.8869 5.5 10.7498 5.5 10.5H4.5ZM8.5 10.5C8.5 10.7498 8.49894 10.8869 8.48615 10.982C8.4753 11.0627 8.46484 11.0352 8.5 11L9.20711 11.7071C9.38871 11.5255 9.45148 11.3069 9.47724 11.1153C9.50106 10.938 9.5 10.7216 9.5 10.5H8.5ZM8 12C8.22157 12 8.43804 12.0011 8.61526 11.9772C8.80686 11.9515 9.0255 11.8887 9.20711 11.7071L8.5 11C8.53516 10.9648 8.56273 10.9753 8.48201 10.9862C8.38692 10.9989 8.24984 11 8 11V12ZM8 10C8.24984 10 8.38692 10.0011 8.48201 10.0138C8.56273 10.0247 8.53516 10.0352 8.5 10L9.20711 9.29289C9.0255 9.11129 8.80686 9.04852 8.61526 9.02276C8.43804 8.99894 8.22157 9 8 9V10ZM9.5 10.5C9.5 10.2784 9.50106 10.062 9.47724 9.88474C9.45148 9.69314 9.38871 9.4745 9.20711 9.29289L8.5 10C8.46484 9.96484 8.4753 9.93727 8.48615 10.018C8.49894 10.1131 8.5 10.2502 8.5 10.5H9.5ZM6 9C5.77843 9 5.56196 8.99894 5.38474 9.02276C5.19314 9.04852 4.9745 9.11129 4.79289 9.29289L5.5 10C5.46484 10.0352 5.43727 10.0247 5.51799 10.0138C5.61308 10.0011 5.75016 10 6 10V9ZM5.5 10.5C5.5 10.2502 5.50106 10.1131 5.51385 10.018C5.5247 9.93727 5.53516 9.96484 5.5 10L4.79289 9.29289C4.61129 9.4745 4.54852 9.69314 4.52276 9.88474C4.49894 10.062 4.5 10.2784 4.5 10.5H5.5ZM6 14H8V13H6V14ZM8 15H6V16H8V15ZM6 15C5.75016 15 5.61308 14.9989 5.51799 14.9862C5.43727 14.9753 5.46484 14.9648 5.5 15L4.79289 15.7071C4.9745 15.8887 5.19314 15.9515 5.38474 15.9772C5.56196 16.0011 5.77843 16 6 16V15ZM4.5 14.5C4.5 14.7216 4.49894 14.938 4.52276 15.1153C4.54852 15.3069 4.61129 15.5255 4.79289 15.7071L5.5 15C5.53516 15.0352 5.5247 15.0627 5.51385 14.982C5.50106 14.8869 5.5 14.7498 5.5 14.5H4.5ZM8.5 14.5C8.5 14.7498 8.49894 14.8869 8.48615 14.982C8.4753 15.0627 8.46484 15.0352 8.5 15L9.20711 15.7071C9.38871 15.5255 9.45148 15.3069 9.47724 15.1153C9.50106 14.938 9.5 14.7216 9.5 14.5H8.5ZM8 16C8.22157 16 8.43804 16.0011 8.61526 15.9772C8.80686 15.9515 9.0255 15.8887 9.20711 15.7071L8.5 15C8.53516 14.9648 8.56273 14.9753 8.48201 14.9862C8.38692 14.9989 8.24984 15 8 15V16ZM8 14C8.24984 14 8.38692 14.0011 8.48201 14.0138C8.56273 14.0247 8.53516 14.0352 8.5 14L9.20711 13.2929C9.0255 13.1113 8.80686 13.0485 8.61526 13.0228C8.43804 12.9989 8.22157 13 8 13V14ZM9.5 14.5C9.5 14.2784 9.50106 14.062 9.47724 13.8847C9.45148 13.6931 9.38871 13.4745 9.20711 13.2929L8.5 14C8.46484 13.9648 8.4753 13.9373 8.48615 14.018C8.49894 14.1131 8.5 14.2502 8.5 14.5H9.5ZM6 13C5.77843 13 5.56196 12.9989 5.38474 13.0228C5.19314 13.0485 4.9745 13.1113 4.79289 13.2929L5.5 14C5.46484 14.0352 5.43727 14.0247 5.51799 14.0138C5.61308 14.0011 5.75016 14 6 14V13ZM5.5 14.5C5.5 14.2502 5.50106 14.1131 5.51385 14.018C5.5247 13.9373 5.53516 13.9648 5.5 14L4.79289 13.2929C4.61129 13.4745 4.54852 13.6931 4.52276 13.8847C4.49894 14.062 4.5 14.2784 4.5 14.5H5.5ZM12 10H14V9H12V10ZM14 11H12V12H14V11ZM12 11C11.7502 11 11.6131 10.9989 11.518 10.9862C11.4373 10.9753 11.4648 10.9648 11.5 11L10.7929 11.7071C10.9745 11.8887 11.1931 11.9515 11.3847 11.9772C11.562 12.0011 11.7784 12 12 12V11ZM10.5 10.5C10.5 10.7216 10.4989 10.938 10.5228 11.1153C10.5485 11.3069 10.6113 11.5255 10.7929 11.7071L11.5 11C11.5352 11.0352 11.5247 11.0627 11.5138 10.982C11.5011 10.8869 11.5 10.7498 11.5 10.5H10.5ZM14.5 10.5C14.5 10.7498 14.4989 10.8869 14.4862 10.982C14.4753 11.0627 14.4648 11.0352 14.5 11L15.2071 11.7071C15.3887 11.5255 15.4515 11.3069 15.4772 11.1153C15.5011 10.938 15.5 10.7216 15.5 10.5H14.5ZM14 12C14.2216 12 14.438 12.0011 14.6153 11.9772C14.8069 11.9515 15.0255 11.8887 15.2071 11.7071L14.5 11C14.5352 10.9648 14.5627 10.9753 14.482 10.9862C14.3869 10.9989 14.2498 11 14 11V12ZM14 10C14.2498 10 14.3869 10.0011 14.482 10.0138C14.5627 10.0247 14.5352 10.0352 14.5 10L15.2071 9.29289C15.0255 9.11129 14.8069 9.04852 14.6153 9.02276C14.438 8.99894 14.2216 9 14 9V10ZM15.5 10.5C15.5 10.2784 15.5011 10.062 15.4772 9.88474C15.4515 9.69314 15.3887 9.4745 15.2071 9.29289L14.5 10C14.4648 9.96484 14.4753 9.93727 14.4862 10.018C14.4989 10.1131 14.5 10.2502 14.5 10.5H15.5ZM12 9C11.7784 9 11.562 8.99894 11.3847 9.02276C11.1931 9.04852 10.9745 9.11129 10.7929 9.29289L11.5 10C11.4648 10.0352 11.4373 10.0247 11.518 10.0138C11.6131 10.0011 11.7502 10 12 10V9ZM11.5 10.5C11.5 10.2502 11.5011 10.1131 11.5138 10.018C11.5247 9.93727 11.5352 9.96484 11.5 10L10.7929 9.29289C10.6113 9.4745 10.5485 9.69314 10.5228 9.88474C10.4989 10.062 10.5 10.2784 10.5 10.5H11.5ZM12 14H14V13H12V14ZM14 15H12V16H14V15ZM12 15C11.7502 15 11.6131 14.9989 11.518 14.9862C11.4373 14.9753 11.4648 14.9648 11.5 15L10.7929 15.7071C10.9745 15.8887 11.1931 15.9515 11.3847 15.9772C11.562 16.0011 11.7784 16 12 16V15ZM10.5 14.5C10.5 14.7216 10.4989 14.938 10.5228 15.1153C10.5485 15.3069 10.6113 15.5255 10.7929 15.7071L11.5 15C11.5352 15.0352 11.5247 15.0627 11.5138 14.982C11.5011 14.8869 11.5 14.7498 11.5 14.5H10.5ZM14.5 14.5C14.5 14.7498 14.4989 14.8869 14.4862 14.982C14.4753 15.0627 14.4648 15.0352 14.5 15L15.2071 15.7071C15.3887 15.5255 15.4515 15.3069 15.4772 15.1153C15.5011 14.938 15.5 14.7216 15.5 14.5H14.5ZM14 16C14.2216 16 14.438 16.0011 14.6153 15.9772C14.8069 15.9515 15.0255 15.8887 15.2071 15.7071L14.5 15C14.5352 14.9648 14.5627 14.9753 14.482 14.9862C14.3869 14.9989 14.2498 15 14 15V16ZM14 14C14.2498 14 14.3869 14.0011 14.482 14.0138C14.5627 14.0247 14.5352 14.0352 14.5 14L15.2071 13.2929C15.0255 13.1113 14.8069 13.0485 14.6153 13.0228C14.438 12.9989 14.2216 13 14 13V14ZM15.5 14.5C15.5 14.2784 15.5011 14.062 15.4772 13.8847C15.4515 13.6931 15.3887 13.4745 15.2071 13.2929L14.5 14C14.4648 13.9648 14.4753 13.9373 14.4862 14.018C14.4989 14.1131 14.5 14.2502 14.5 14.5H15.5ZM12 13C11.7784 13 11.562 12.9989 11.3847 13.0228C11.1931 13.0485 10.9745 13.1113 10.7929 13.2929L11.5 14C11.4648 14.0352 11.4373 14.0247 11.518 14.0138C11.6131 14.0011 11.7502 14 12 14V13ZM11.5 14.5C11.5 14.2502 11.5011 14.1131 11.5138 14.018C11.5247 13.9373 11.5352 13.9648 11.5 14L10.7929 13.2929C10.6113 13.4745 10.5485 13.6931 10.5228 13.8847C10.4989 14.062 10.5 14.2784 10.5 14.5H11.5Z" fill="black"/>
</svg>
