<svg width="26" height="24" viewBox="0 0 26 24" fill="none" xmlns="http://www.w3.org/2000/svg">
<path d="M7.75953 6V6.75C8.0045 6.75 8.23404 6.63036 8.37434 6.42955L7.75953 6ZM9.2333 3.8906L8.61849 3.46105V3.46105L9.2333 3.8906ZM16.7658 3.8906L17.3806 3.46105L16.7658 3.8906ZM18.2395 6L17.6247 6.42955C17.765 6.63036 17.9946 6.75 18.2395 6.75V6ZM15.3935 13.5C15.3935 14.7099 14.3552 15.75 12.9995 15.75V17.25C15.1166 17.25 16.8935 15.6038 16.8935 13.5H15.3935ZM12.9995 15.75C11.6438 15.75 10.6055 14.7099 10.6055 13.5H9.10553C9.10553 15.6038 10.8825 17.25 12.9995 17.25V15.75ZM10.6055 13.5C10.6055 12.2901 11.6438 11.25 12.9995 11.25V9.75C10.8825 9.75 9.10553 11.3962 9.10553 13.5H10.6055ZM12.9995 11.25C14.3552 11.25 15.3935 12.2901 15.3935 13.5H16.8935C16.8935 11.3962 15.1166 9.75 12.9995 9.75V11.25ZM8.37434 6.42955L9.84811 4.32015L8.61849 3.46105L7.14472 5.57045L8.37434 6.42955ZM10.9773 3.75H15.0218V2.25H10.9773V3.75ZM16.151 4.32015L17.6247 6.42955L18.8543 5.57045L17.3806 3.46105L16.151 4.32015ZM15.0218 3.75C15.4871 3.75 15.9079 3.97221 16.151 4.32015L17.3806 3.46105C16.8462 2.6962 15.9581 2.25 15.0218 2.25V3.75ZM9.84811 4.32015C10.0912 3.97221 10.512 3.75 10.9773 3.75V2.25C10.041 2.25 9.15287 2.6962 8.61849 3.46105L9.84811 4.32015ZM22.7295 10V17H24.2295V10H22.7295ZM19.2875 20.25H6.71153V21.75H19.2875V20.25ZM3.26953 17V10H1.76953V17H3.26953ZM6.71153 20.25C4.77704 20.25 3.26953 18.7622 3.26953 17H1.76953C1.76953 19.6561 4.01566 21.75 6.71153 21.75V20.25ZM22.7295 17C22.7295 18.7622 21.222 20.25 19.2875 20.25V21.75C21.9834 21.75 24.2295 19.6561 24.2295 17H22.7295ZM19.2875 6.75C21.222 6.75 22.7295 8.23782 22.7295 10H24.2295C24.2295 7.3439 21.9834 5.25 19.2875 5.25V6.75ZM6.71153 5.25C4.01567 5.25 1.76953 7.3439 1.76953 10H3.26953C3.26953 8.23782 4.77704 6.75 6.71153 6.75V5.25ZM6.71153 6.75H7.75953V5.25H6.71153V6.75ZM19.2875 5.25H18.2395V6.75H19.2875V5.25Z" fill="#07194B"/>
<ellipse cx="12.9992" cy="6" rx="1.048" ry="1" fill="#07194B"/>
</svg>
