<svg width="25" height="24" viewBox="0 0 25 24" fill="none" xmlns="http://www.w3.org/2000/svg">
<path d="M4.50757 8.25609C4.47647 8.25222 4.44516 8.25019 4.41382 8.25M4.50757 8.25609L3.08726 9.79313C3.11037 9.7809 3.13033 9.76348 3.14556 9.74222C3.16079 9.72096 3.17087 9.69646 3.175 9.67064C3.17914 9.64482 3.17722 9.6184 3.1694 9.59345C3.16157 9.5685 3.14806 9.54571 3.12992 9.52688C3.05409 9.45067 2.99561 9.359 2.95848 9.25811C2.92135 9.15723 2.90643 9.04952 2.91476 8.94234C2.93239 8.75185 3.02097 8.57494 3.16293 8.44669M4.50757 8.25609C4.52804 8.24854 4.54925 8.24319 4.57085 8.24016L4.5746 8.23266L4.57468 8.23249C5.0078 7.31704 5.60077 6.06371 6.82976 5.45203M4.50757 8.25609L20.9171 8.25M4.41382 8.25H3.68117C3.48986 8.24825 3.30489 8.31845 3.16293 8.44669M4.41382 8.25L4.41086 8.74999C4.41123 8.74999 4.41159 8.75 4.41196 8.75M4.41382 8.25V8.75H4.41196M3.16293 8.44669L3.4981 8.81772C3.45013 8.86105 3.41986 8.92052 3.413 8.98471C3.41085 9.01892 3.41585 9.05321 3.4277 9.0854C3.43997 9.11873 3.45929 9.14902 3.48435 9.1742L3.49007 9.17996L3.49002 9.18C3.56191 9.25463 3.61547 9.34494 3.64648 9.44382C3.67749 9.54269 3.6851 9.64742 3.66871 9.74974C3.65232 9.85206 3.61237 9.94916 3.55203 10.0334C3.49231 10.1168 3.41424 10.1853 3.32385 10.2336M3.16293 8.44669L3.4981 8.81772C3.54699 8.77355 3.6107 8.74937 3.67658 8.74998L3.67658 8.75H3.68117H4.41196M3.32385 10.2336C2.88884 10.4691 2.61151 10.629 2.45078 10.8432L2.45077 10.8432C2.44997 10.8442 2.44895 10.8455 2.44774 10.847C2.40814 10.8953 2.15687 11.2019 1.99718 12.9891C1.90498 14.0376 1.89318 15.106 1.96221 15.7731L3.32385 10.2336ZM3.32385 10.2336L23.8332 12.9478C23.9279 14.0156 23.941 15.1172 23.8674 15.8283C23.7132 17.3048 23.424 18.1973 23.4118 18.2344M4.41196 8.75C4.42327 8.75011 4.43456 8.75086 4.44579 8.75226L4.56657 8.7673L4.66117 8.73237M4.66117 8.73237L4.90059 8.69869L5.01806 8.46378L5.02181 8.45628L5.02191 8.45633L5.02657 8.44649C5.47117 7.50676 6.00146 6.42289 7.05235 5.89975M4.66117 8.73237L4.68075 8.72514C4.66774 8.72995 4.65425 8.73335 4.6405 8.73528L4.66117 8.73237ZM7.05235 5.89975C7.8788 5.48887 9.09851 5.25746 10.2379 5.13366C11.3622 5.01149 12.3461 5 12.6648 5C12.9834 5 13.9672 5.01149 15.0918 5.13383C16.2314 5.25779 17.4517 5.48951 18.2793 5.90106M7.05235 5.89975L6.82976 5.45203M7.05235 5.89975C7.05242 5.89972 7.05248 5.89969 7.05255 5.89965L6.82976 5.45203M18.2793 5.90106C19.3303 6.42417 19.8607 7.50811 20.3053 8.4479L20.4079 8.66474L20.6325 8.71834M18.2793 5.90106L18.5021 5.45344M18.2793 5.90106C18.2794 5.90108 18.2794 5.90111 18.2795 5.90113L18.5021 5.45344M20.6325 8.71834L20.7496 8.76913L20.8851 8.75226C20.8964 8.75086 20.9077 8.75011 20.919 8.75M20.6325 8.71834L20.6412 8.72041C20.6354 8.71904 20.6298 8.71716 20.6244 8.71479L20.6325 8.71834ZM20.919 8.75L21.6483 8.75002L21.6529 8.74998C21.7188 8.74937 21.7825 8.77355 21.8314 8.81772C21.8798 8.86145 21.9102 8.92161 21.9167 8.98648M20.919 8.75H20.9171V8.25M20.919 8.75C20.9193 8.75 20.9197 8.74999 20.9201 8.74999L20.9171 8.25M21.9167 8.98648C21.9194 9.02135 21.9146 9.05639 21.9027 9.08928C21.8906 9.12279 21.8714 9.15327 21.8464 9.17863L21.8464 9.1786L21.8423 9.18281C21.7704 9.25744 21.7169 9.34776 21.6858 9.44665C21.6548 9.5455 21.6472 9.65023 21.6636 9.75256C21.68 9.85484 21.7199 9.95195 21.7803 10.0362C21.8406 10.1204 21.9197 10.1895 22.0114 10.238L22.2451 9.79594L22.0082 10.2363C22.4414 10.4692 22.7191 10.6302 22.882 10.8467L22.8828 10.8477C22.8835 10.8487 22.8846 10.85 22.886 10.8517C22.9227 10.8957 23.1755 11.1995 23.3352 12.9922C23.4282 14.042 23.4392 15.1086 23.3701 15.7763C23.2203 17.2104 22.9403 18.0675 22.9368 18.0781L23.4118 18.2344M21.9167 8.98648C21.9168 8.98712 21.9168 8.98777 21.9169 8.98842L22.4148 8.94234L21.9165 8.98456C21.9166 8.9852 21.9166 8.98584 21.9167 8.98648ZM23.4118 18.2344C23.3673 18.3694 23.2853 18.489 23.1754 18.5792C23.0655 18.6694 22.9323 18.7265 22.7912 18.7439V18.7495C22.7912 18.9484 22.7121 19.1392 22.5715 19.2799C22.4308 19.4205 22.2401 19.4995 22.0412 19.4995H19.4162C19.2173 19.4995 19.0265 19.4205 18.8858 19.2799C18.7452 19.1392 18.6662 18.9484 18.6662 18.7495C18.2916 18.7425 18.0212 18.675 17.7362 18.6019M23.4118 18.2344L22.9369 18.0778C22.9221 18.1228 22.8948 18.1627 22.8581 18.1927C22.8215 18.2228 22.7771 18.2419 22.7301 18.2477L22.2912 18.3017V18.7439V18.7495C22.2912 18.8158 22.2648 18.8794 22.2179 18.9263C22.1711 18.9732 22.1075 18.9995 22.0412 18.9995H19.4162C19.3499 18.9995 19.2863 18.9732 19.2394 18.9263C19.1925 18.8794 19.1662 18.8158 19.1662 18.7495V18.2588L18.6755 18.2496C18.3641 18.2438 18.1419 18.1898 17.8633 18.1183M17.7362 18.6019L17.8663 18.1191C17.8653 18.1188 17.8643 18.1186 17.8633 18.1183M17.7362 18.6019C17.3047 18.4855 16.8638 18.4082 16.4185 18.3708L17.7362 18.6019ZM17.8633 18.1183C17.4049 17.9949 16.9363 17.9127 16.4632 17.8728M17.8633 18.1183L16.4632 17.8728M6.82976 5.45203C8.65038 4.54687 12.0085 4.5 12.6648 4.5C13.321 4.5 16.6791 4.54687 18.5021 5.45344M18.5021 5.45344C19.7311 6.06512 20.3241 7.31845 20.7572 8.2339L20.7573 8.23406C20.7799 8.23946 20.802 8.24683 20.8233 8.25609C20.8545 8.25222 20.8858 8.25019 20.9171 8.25M16.4632 17.8728C15.0135 17.7348 13.5138 17.6875 12.6648 17.6875C11.7977 17.6875 10.3608 17.7349 8.9141 17.8728C8.44265 17.9126 7.9757 17.9945 7.51882 18.1175C7.2269 18.1928 6.999 18.25 6.66429 18.25H6.16429V18.75C6.16429 18.8163 6.13795 18.8799 6.09107 18.9268C6.04418 18.9737 5.9806 19 5.91429 19H3.28929C3.22299 19 3.1594 18.9737 3.11251 18.9268C3.06563 18.8799 3.03929 18.8163 3.03929 18.75V18.7406V18.2996L2.6017 18.2445C2.55477 18.2386 2.51049 18.2195 2.47398 18.1895C2.4375 18.1594 2.41028 18.1197 2.39548 18.0748L16.4632 17.8728ZM5.47767 8.66094L5.47782 8.66101C5.66278 8.26798 5.8789 7.80893 6.15282 7.39994C6.4278 6.98938 6.78519 6.5912 7.27489 6.3474M5.47767 8.66094L7.27489 6.3474M5.47767 8.66094L5.47257 8.67254M5.47767 8.66094L5.47257 8.67254M7.27489 6.3474C7.90165 6.03536 8.81545 5.82765 9.75944 5.69538C10.7166 5.56128 11.7558 5.49812 12.6648 5.49812C13.5736 5.49812 14.6128 5.56079 15.5699 5.69466C16.5138 5.82667 17.4279 6.03437 18.055 6.34761M7.27489 6.3474L18.055 6.34761M18.055 6.34761C18.0551 6.34765 18.0552 6.34768 18.0552 6.34771L17.8318 6.795M18.055 6.34761L19.3993 8.87391C19.0224 8.0775 18.5954 7.17516 17.8318 6.795M17.8318 6.795C16.7283 6.24375 14.4413 5.99812 12.6648 5.99812C10.8882 5.99812 8.60116 6.24563 7.49773 6.795H17.8318ZM5.47257 8.67254C5.4647 8.69042 5.45742 8.70562 5.44718 8.72701M5.47257 8.67254L5.44718 8.72701M3.16582 10.756L3.16686 10.7558C3.85466 10.65 4.29703 10.7813 5.1297 11.0284C5.19454 11.0476 5.26175 11.0675 5.33162 11.0881L3.16582 10.756ZM3.16582 10.756C2.98649 10.7839 2.79256 10.8509 2.64319 11.0128C2.50098 11.167 2.46059 11.3447 2.44255 11.4319C2.3911 11.6785 2.38875 11.9176 2.46644 12.2729C2.5568 12.6915 2.84952 12.9452 3.15232 13.0807C3.44275 13.2108 3.7727 13.2499 4.05852 13.25L3.16582 10.756ZM19.9977 11.0877C20.978 10.7989 21.67 10.6378 22.3029 10.7633L22.303 10.7633C22.5235 10.8071 22.6699 10.9437 22.7531 11.0621C22.8299 11.1715 22.8789 11.3002 22.8936 11.4255C22.9336 11.7074 22.9234 11.9942 22.8631 12.2726L22.863 12.2726C22.7733 12.6928 22.4791 12.9464 22.1762 13.0813C21.8851 13.211 21.5547 13.2495 21.2702 13.2495L19.9977 11.0877ZM19.9977 11.0877C19.2951 11.2947 18.7504 11.5731 18.4194 11.8334L18.4193 11.8335C18.1633 12.035 18.1178 12.3381 18.163 12.5558C18.2027 12.7465 18.3656 13.0641 18.7391 13.1032M19.9977 11.0877L18.7391 13.1032M18.7391 13.1032C19.5792 13.2009 20.4243 13.2497 21.2701 13.2495L18.7391 13.1032ZM5.44718 8.72701C5.44204 8.73774 5.43616 8.75002 5.42908 8.76498L5.44718 8.72701ZM14.117 16.9976C15.1165 17.0006 15.8462 17.0027 16.3666 16.984V17.0176L16.927 16.9495C17.3414 16.8991 17.8053 16.696 18.1039 16.373C18.258 16.2063 18.3941 15.9778 18.4139 15.6976C18.4345 15.4063 18.324 15.1369 18.1272 14.9128C17.9986 14.765 17.8275 14.6536 17.6587 14.5672C17.4837 14.4775 17.2794 14.3987 17.0576 14.3287C16.6139 14.1888 16.0614 14.0725 15.449 13.981C14.2381 13.8 13.7762 13.75 12.6741 13.75C11.6622 13.75 11.1444 13.8177 10.189 13.9426C10.0997 13.9543 10.0066 13.9665 9.90891 13.9791C9.31677 14.0559 8.78386 14.1643 8.34219 14.305C7.91261 14.4418 7.5185 14.6247 7.25166 14.8804L7.24984 14.8821C7.02869 15.0962 6.8962 15.3699 6.91491 15.677C6.93248 15.9654 7.07871 16.1983 7.23404 16.3632C7.53702 16.6849 8.01235 16.8998 8.43485 16.9471C8.93814 17.0045 9.81475 17.0018 11.2407 16.9976C11.6689 16.9963 12.1467 16.9948 12.6788 16.9948C13.2109 16.9948 13.6887 16.9963 14.117 16.9976ZM2.39545 18.0747C2.39061 18.0599 2.11163 17.2036 1.96222 15.7732L2.39545 18.0747ZM6.54197 13.1038C6.89182 13.0698 7.0826 12.7976 7.14284 12.5869C7.20261 12.378 7.18702 12.0407 6.90104 11.8269C6.57386 11.5801 6.04083 11.2967 5.33186 11.0882L6.54197 13.1038Z" stroke="#07194B"/>
</svg>
