<svg width="19" height="19" viewBox="0 0 19 19" fill="none" xmlns="http://www.w3.org/2000/svg">
<path d="M7.5174 4.0892C8.304 2.1282 8.6973 1.14771 9.37363 1.14771C10.05 1.14771 10.4433 2.1282 11.2299 4.0892L11.2665 4.18052C11.7109 5.28839 11.9331 5.84232 12.3859 6.17901C12.8388 6.5157 13.4332 6.56894 14.6222 6.67541L14.8371 6.69466C16.7829 6.86893 17.7558 6.95606 17.964 7.57504C18.1722 8.19402 17.4496 8.85137 16.0046 10.1661L15.5223 10.6048C14.7908 11.2703 14.4251 11.6031 14.2546 12.0392C14.2228 12.1206 14.1964 12.2039 14.1754 12.2888C14.0634 12.7434 14.1705 13.2261 14.3847 14.1916L14.4514 14.4921C14.8451 16.2665 15.0419 17.1536 14.6982 17.5363C14.5698 17.6793 14.4029 17.7822 14.2175 17.8328C13.7213 17.9682 13.0168 17.3942 11.6078 16.2461C10.6827 15.4922 10.2201 15.1153 9.68897 15.0305C9.48007 14.9971 9.26719 14.9971 9.05828 15.0305C8.52718 15.1153 8.0646 15.4922 7.13942 16.2461C5.73047 17.3942 5.02599 17.9682 4.52979 17.8328C4.34438 17.7822 4.17747 17.6793 4.04904 17.5363C3.70536 17.1536 3.9022 16.2665 4.29587 14.4921L4.36255 14.1916C4.57676 13.2261 4.68386 12.7434 4.57181 12.2888C4.55091 12.2039 4.52447 12.1206 4.49267 12.0392C4.3222 11.6031 3.95644 11.2703 3.22494 10.6048L2.74265 10.1661C1.29761 8.85137 0.575089 8.19402 0.783268 7.57504C0.991446 6.95606 1.96435 6.86893 3.91017 6.69466L4.1251 6.67541C5.31402 6.56894 5.90848 6.5157 6.36133 6.17901C6.81418 5.84232 7.03637 5.28839 7.48077 4.18052L7.5174 4.0892Z" stroke="#CD9A32"/>
</svg>
