<svg width="24" height="14" viewBox="0 0 24 14" fill="none" xmlns="http://www.w3.org/2000/svg">
<path d="M22.875 5.12592H20.0306L15.8597 0.955919C15.7556 0.851005 15.6318 0.767808 15.4953 0.711158C15.3588 0.654509 15.2125 0.625535 15.0647 0.625919H4.52625C4.34083 0.625644 4.15822 0.671204 3.99466 0.758546C3.83109 0.845887 3.69166 0.972302 3.58875 1.12654L0.812813 5.29279C0.771784 5.35445 0.749928 5.42686 0.75 5.50092V10.0009C0.75 10.2993 0.868527 10.5854 1.07951 10.7964C1.29048 11.0074 1.57663 11.1259 1.875 11.1259H3.77719C3.86775 11.7503 4.18017 12.3212 4.65723 12.734C5.13429 13.1469 5.74409 13.3741 6.375 13.3741C7.00591 13.3741 7.61571 13.1469 8.09277 12.734C8.56983 12.3212 8.88225 11.7503 8.97281 11.1259H15.7772C15.8678 11.7503 16.1802 12.3212 16.6572 12.734C17.1343 13.1469 17.7441 13.3741 18.375 13.3741C19.0059 13.3741 19.6157 13.1469 20.0928 12.734C20.5698 12.3212 20.8822 11.7503 20.9728 11.1259H22.875C23.1734 11.1259 23.4595 11.0074 23.6705 10.7964C23.8815 10.5854 24 10.2993 24 10.0009V6.25092C24 5.95255 23.8815 5.6664 23.6705 5.45542C23.4595 5.24445 23.1734 5.12592 22.875 5.12592ZM4.21875 1.54279C4.25258 1.49208 4.29826 1.45038 4.35185 1.4213C4.40543 1.39222 4.46529 1.37664 4.52625 1.37592H15.0647C15.1638 1.37609 15.2589 1.41553 15.3291 1.48561L18.9694 5.12592H1.82531L4.21875 1.54279ZM6.375 12.6259C6.00416 12.6259 5.64165 12.516 5.33331 12.3099C5.02496 12.1039 4.78464 11.8111 4.64273 11.4685C4.50081 11.1258 4.46368 10.7488 4.53603 10.3851C4.60837 10.0214 4.78695 9.68732 5.04917 9.42509C5.3114 9.16287 5.64549 8.98429 6.00921 8.91195C6.37292 8.8396 6.74992 8.87673 7.09253 9.01865C7.43514 9.16056 7.72798 9.40088 7.93401 9.70922C8.14003 10.0176 8.25 10.3801 8.25 10.7509C8.25 11.2482 8.05246 11.7251 7.70083 12.0767C7.34919 12.4284 6.87228 12.6259 6.375 12.6259ZM18.375 12.6259C18.0042 12.6259 17.6416 12.516 17.3333 12.3099C17.025 12.1039 16.7846 11.8111 16.6427 11.4685C16.5008 11.1258 16.4637 10.7488 16.536 10.3851C16.6084 10.0214 16.787 9.68732 17.0492 9.42509C17.3114 9.16287 17.6455 8.98429 18.0092 8.91195C18.3729 8.8396 18.7499 8.87673 19.0925 9.01865C19.4351 9.16056 19.728 9.40088 19.934 9.70922C20.14 10.0176 20.25 10.3801 20.25 10.7509C20.25 11.2482 20.0525 11.7251 19.7008 12.0767C19.3492 12.4284 18.8723 12.6259 18.375 12.6259ZM23.25 10.0009C23.25 10.1004 23.2105 10.1958 23.1402 10.2661C23.0698 10.3364 22.9745 10.3759 22.875 10.3759H20.9728C20.8822 9.75155 20.5698 9.18068 20.0928 8.76783C19.6157 8.35497 19.0059 8.12774 18.375 8.12774C17.7441 8.12774 17.1343 8.35497 16.6572 8.76783C16.1802 9.18068 15.8678 9.75155 15.7772 10.3759H8.97281C8.88225 9.75155 8.56983 9.18068 8.09277 8.76783C7.61571 8.35497 7.00591 8.12774 6.375 8.12774C5.74409 8.12774 5.13429 8.35497 4.65723 8.76783C4.18017 9.18068 3.86775 9.75155 3.77719 10.3759H1.875C1.77554 10.3759 1.68016 10.3364 1.60984 10.2661C1.53951 10.1958 1.5 10.1004 1.5 10.0009V5.87592H22.875C22.9745 5.87592 23.0698 5.91543 23.1402 5.98575C23.2105 6.05608 23.25 6.15146 23.25 6.25092V10.0009Z" fill="#CD9A32"/>
</svg>
