<svg width="24" height="14" viewBox="0 0 24 14" fill="none" xmlns="http://www.w3.org/2000/svg">
<path d="M19.9975 5.03315L20.0112 5.04688H20.0306H22.875C23.1609 5.04688 23.4352 5.16047 23.6373 5.36265C23.8395 5.56484 23.9531 5.83907 23.9531 6.125V9.875C23.9531 10.1609 23.8395 10.4352 23.6373 10.6374C23.4352 10.8395 23.1609 10.9531 22.875 10.9531H20.9728H20.9322L20.9264 10.9933C20.8375 11.6065 20.5306 12.1672 20.0621 12.5727C19.5935 12.9781 18.9946 13.2013 18.375 13.2013C17.7554 13.2013 17.1565 12.9781 16.6879 12.5727C16.2194 12.1672 15.9125 11.6065 15.8236 10.9933L15.8178 10.9531H15.7772H8.97281H8.93225L8.92642 10.9933C8.83747 11.6065 8.53064 12.1672 8.0621 12.5727C7.59355 12.9781 6.99464 13.2013 6.375 13.2013C5.75536 13.2013 5.15645 12.9781 4.6879 12.5727C4.21936 12.1672 3.91253 11.6065 3.82358 10.9933L3.81775 10.9531H3.77719H1.875C1.58906 10.9531 1.31484 10.8395 1.11265 10.6374C0.910463 10.4352 0.796875 10.1609 0.796875 9.875L0.796875 5.375L0.796875 5.37496C0.796812 5.31016 0.815936 5.24679 0.851836 5.19285L3.62774 1.02664C3.72636 0.878829 3.85999 0.757681 4.01674 0.673979C4.17348 0.590277 4.34849 0.546615 4.52618 0.546879H4.52625L15.0647 0.546879L15.0648 0.546879C15.2064 0.54651 15.3466 0.574267 15.4773 0.628536C15.6081 0.682806 15.7267 0.762507 15.8264 0.863013L15.8265 0.863153L19.9975 5.03315ZM15.0647 0.500004H4.52625H15.0647ZM4.52625 1.20313L4.52569 1.20313L4.21875 1.41688L4.17977 1.39084L4.17975 1.39087L1.78633 4.97397L1.73763 5.04688H1.82531H18.9694H19.0825L19.0025 4.96686L15.3622 1.32655L15.3622 1.32653C15.2833 1.24769 15.1763 1.20332 15.0648 1.20313H15.0647L4.52625 1.20313ZM20.9264 10.2567L20.9322 10.2969H20.9728H22.875C22.9869 10.2969 23.0942 10.2524 23.1733 10.1733C23.2524 10.0942 23.2969 9.98689 23.2969 9.875V6.125C23.2969 6.01312 23.2524 5.90581 23.1733 5.82669C23.0942 5.74758 22.9869 5.70313 22.875 5.70313H1.5H1.45313V5.75V9.875C1.45313 9.98689 1.49757 10.0942 1.57669 10.1733C1.65581 10.2524 1.76311 10.2969 1.875 10.2969H3.77719H3.81775L3.82358 10.2567C3.91253 9.64351 4.21936 9.08284 4.6879 8.67735C5.15645 8.27187 5.75536 8.0487 6.375 8.0487C6.99464 8.0487 7.59355 8.27187 8.0621 8.67735C8.53064 9.08284 8.83747 9.64351 8.92642 10.2567L8.93225 10.2969H8.97281H15.7772H15.8178L15.8236 10.2567C15.9125 9.64351 16.2194 9.08284 16.6879 8.67735C17.1565 8.27187 17.7554 8.0487 18.375 8.0487C18.9946 8.0487 19.5935 8.27187 20.0621 8.67735C20.5306 9.08284 20.8375 9.64351 20.9264 10.2567ZM5.30726 12.223C5.62331 12.4342 5.99489 12.5469 6.375 12.5469C6.88471 12.5469 7.37355 12.3444 7.73397 11.984C8.09439 11.6236 8.29688 11.1347 8.29688 10.625C8.29688 10.2449 8.18416 9.87332 7.97298 9.55727C7.7618 9.24122 7.46165 8.99489 7.11047 8.84942C6.75929 8.70396 6.37287 8.6659 6.00006 8.74006C5.62725 8.81421 5.28481 8.99725 5.01603 9.26603C4.74725 9.53481 4.56421 9.87726 4.49005 10.2501C4.4159 10.6229 4.45396 11.0093 4.59942 11.3605C4.74488 11.7116 4.99121 12.0118 5.30726 12.223ZM17.3073 12.223C17.6233 12.4342 17.9949 12.5469 18.375 12.5469C18.8847 12.5469 19.3735 12.3444 19.734 11.984C20.0944 11.6236 20.2969 11.1347 20.2969 10.625C20.2969 10.2449 20.1842 9.87332 19.973 9.55727C19.7618 9.24122 19.4616 8.99489 19.1105 8.84942C18.7593 8.70396 18.3729 8.6659 18.0001 8.74006C17.6273 8.81421 17.2848 8.99725 17.016 9.26603C16.7472 9.53481 16.5642 9.87726 16.4901 10.2501C16.4159 10.6229 16.454 11.0093 16.5994 11.3605C16.7449 11.7116 16.9912 12.0118 17.3073 12.223Z" fill="#CD9A32" stroke="#CD9A32" stroke-width="0.09375"/>
<path d="M23.75 0.5L0.75 13.5M0.75 0.5L23.75 13.5" stroke="#CD9A32"/>
</svg>
