<svg width="15" height="18" viewBox="0 0 15 18" fill="none" xmlns="http://www.w3.org/2000/svg">
<path d="M4 9.5L11 9.5" stroke="#07194B" stroke-linecap="round"/>
<path d="M4 12.5L8 12.5" stroke="#07194B" stroke-linecap="round"/>
<path d="M1 2.9C1 2.05992 1 1.63988 1.16349 1.31901C1.3073 1.03677 1.53677 0.8073 1.81901 0.66349C2.13988 0.5 2.55992 0.5 3.4 0.5H8.00589C8.37277 0.5 8.55622 0.5 8.72885 0.541445C8.8819 0.57819 9.02822 0.638797 9.16243 0.72104C9.3138 0.813802 9.44352 0.943516 9.70294 1.20294L13.2971 4.79706C13.5565 5.05648 13.6862 5.1862 13.779 5.33757C13.8612 5.47178 13.9218 5.6181 13.9586 5.77115C14 5.94378 14 6.12723 14 6.49411V15.1C14 15.9401 14 16.3601 13.8365 16.681C13.6927 16.9632 13.4632 17.1927 13.181 17.3365C12.8601 17.5 12.4401 17.5 11.6 17.5H3.4C2.55992 17.5 2.13988 17.5 1.81901 17.3365C1.53677 17.1927 1.3073 16.9632 1.16349 16.681C1 16.3601 1 15.9401 1 15.1V2.9Z" stroke="#07194B"/>
<path d="M8 0.5V4.1C8 4.94008 8 5.36012 8.16349 5.68099C8.3073 5.96323 8.53677 6.1927 8.81901 6.33651C9.13988 6.5 9.55992 6.5 10.4 6.5H14" stroke="#07194B"/>
</svg>
