<svg width="12" height="12" viewBox="0 0 12 12" fill="none" xmlns="http://www.w3.org/2000/svg">
<path fill-rule="evenodd" clip-rule="evenodd" d="M9.86796 1.31886C9.44422 1.39424 8.86514 1.58588 8.02111 1.86722L3.01012 3.53755C2.64014 3.66088 2.37098 3.75064 2.17211 3.82201C1.96547 3.89619 1.86858 3.93897 1.82445 3.96435C0.821538 4.54113 0.821538 5.98815 1.82445 6.56494C1.86858 6.59032 1.96547 6.6331 2.17211 6.70727C2.37098 6.77865 2.64014 6.86841 3.01012 6.99173L3.02756 6.99755C3.15921 7.04142 3.25002 7.07168 3.33603 7.10764C3.94239 7.36119 4.42451 7.84331 4.67806 8.44967C4.71402 8.53567 4.74428 8.62647 4.78814 8.75811L4.79397 8.77558C4.91729 9.14556 5.00705 9.41473 5.07843 9.61359C5.1526 9.82023 5.19538 9.91712 5.22076 9.96125C5.79755 10.9642 7.24457 10.9642 7.82135 9.96125C7.84673 9.91712 7.88951 9.82023 7.96369 9.61359C8.03506 9.41473 8.12482 9.14556 8.24815 8.77558L9.91848 3.76459C10.1998 2.92056 10.3915 2.34148 10.4668 1.91774C10.5429 1.49038 10.4679 1.39329 10.4301 1.35556C10.3924 1.31782 10.2953 1.24284 9.86796 1.31886ZM9.69282 0.334317C10.2026 0.243631 10.738 0.249168 11.1372 0.648451C11.5365 1.04773 11.5421 1.5831 11.4514 2.09289C11.3616 2.59766 11.1452 3.24681 10.8808 4.03998L10.8672 4.08082L9.19683 9.09181L9.1946 9.09851C9.07395 9.46044 8.98061 9.74048 8.90489 9.95142C8.83151 10.1559 8.76296 10.3298 8.68822 10.4598C7.72691 12.1313 5.31521 12.1313 4.35389 10.4598C4.27915 10.3298 4.2106 10.1559 4.13722 9.95142C4.06151 9.74049 3.96817 9.46046 3.84753 9.09855L3.84528 9.09181C3.79343 8.93624 3.77529 8.88286 3.75547 8.83545C3.60334 8.47164 3.31406 8.18236 2.95025 8.03023C2.90284 8.01041 2.84946 7.99227 2.69389 7.94042L2.68719 7.93818C2.32526 7.81754 2.04522 7.72419 1.83428 7.64848C1.62983 7.5751 1.45587 7.50655 1.32591 7.43181C-0.345615 6.4705 -0.345615 4.05879 1.32591 3.09748C1.45587 3.02274 1.62983 2.95419 1.83428 2.88081C2.04523 2.80509 2.3253 2.71174 2.68727 2.59108L2.69389 2.58887L7.70488 0.918541L7.74572 0.904926C8.53889 0.640514 9.18804 0.424112 9.69282 0.334317Z" fill="#CD9A32"/>
</svg>
