<svg width="23" height="22" viewBox="0 0 23 22" fill="none" xmlns="http://www.w3.org/2000/svg">
<path d="M1 4.5C1 2.29086 2.79086 0.5 5 0.5H18C20.2091 0.5 22 2.29086 22 4.5V17.5C22 19.7091 20.2091 21.5 18 21.5H5C2.79086 21.5 1 19.7091 1 17.5V4.5Z" stroke="#07194B"/>
<path d="M1 13.763L4.83182 9.93127C5.71414 9.04897 7.18011 9.18115 7.89038 10.2071L10.2664 13.639C10.9311 14.5991 12.2735 14.7879 13.1773 14.0485L16.1781 11.5933C16.9733 10.9427 18.1322 11.0005 18.8588 11.727L22 14.8683" stroke="#07194B"/>
<circle cx="16.4743" cy="6.02655" r="1.65789" fill="#07194B"/>
</svg>
