<svg width="10" height="14" viewBox="0 0 10 14" fill="none" xmlns="http://www.w3.org/2000/svg">
<path d="M3.8446 12.6934L3.62099 13.1406H3.62099L3.8446 12.6934ZM6.44218 12.6934L6.66579 13.1406H6.66579L6.44218 12.6934ZM6.59727 12.4453L7.09716 12.4558L6.59727 12.4453ZM3.68951 12.4453L4.1894 12.4349L3.68951 12.4453ZM2.53243 8.84373L2.23246 9.24375L2.53243 8.84373ZM3.06963 9.48446L2.60753 9.6754L3.06963 9.48446ZM7.75435 8.84373L8.05432 9.24375L7.75435 8.84373ZM7.21714 9.48446L6.75504 9.29351L7.21714 9.48446ZM7.1442 10.5398C7.40059 10.4373 7.5253 10.1463 7.42274 9.88989C7.32019 9.6335 7.0292 9.50879 6.77281 9.61134L7.1442 10.5398ZM3.51397 9.61134C3.25758 9.50879 2.96659 9.6335 2.86403 9.88989C2.76148 10.1463 2.88619 10.4373 3.14258 10.5398L3.51397 9.61134ZM3.91734 8.26047C3.91734 8.53661 4.1412 8.76047 4.41734 8.76047C4.69348 8.76047 4.91734 8.53661 4.91734 8.26047H3.91734ZM5.36944 8.26047C5.36944 8.53661 5.59329 8.76047 5.86944 8.76047C6.14558 8.76047 6.36944 8.53661 6.36944 8.26047H5.36944ZM8.99967 5.35628C8.99967 6.6187 8.39357 7.73943 7.45438 8.44371L8.05432 9.24375C9.2345 8.35876 9.99967 6.94681 9.99967 5.35628H8.99967ZM5.14339 1.5C7.27315 1.5 8.99967 3.22652 8.99967 5.35628H9.99967C9.99967 2.67423 7.82544 0.5 5.14339 0.5V1.5ZM1.28711 5.35628C1.28711 3.22652 3.01362 1.5 5.14339 1.5V0.5C2.46134 0.5 0.287109 2.67423 0.287109 5.35628H1.28711ZM2.8324 8.44371C1.8932 7.73943 1.28711 6.6187 1.28711 5.35628H0.287109C0.287109 6.94681 1.05227 8.35876 2.23246 9.24375L2.8324 8.44371ZM4.1894 12.4349C4.1668 11.3534 3.94281 10.2883 3.53174 9.29351L2.60753 9.6754C2.97137 10.5559 3.16961 11.4986 3.18961 12.4558L4.1894 12.4349ZM6.21857 12.2462C5.54173 12.5846 4.74505 12.5846 4.0682 12.2462L3.62099 13.1406C4.57936 13.6198 5.70742 13.6198 6.66579 13.1406L6.21857 12.2462ZM6.75504 9.29351C6.34397 10.2883 6.11998 11.3534 6.09738 12.4349L7.09716 12.4558C7.11717 11.4986 7.31541 10.5559 7.67925 9.6754L6.75504 9.29351ZM6.66579 13.1406C6.93101 13.008 7.09121 12.7405 7.09716 12.4558L6.09738 12.4349C6.09894 12.3603 6.14126 12.2848 6.21857 12.2462L6.66579 13.1406ZM3.18961 12.4558C3.19556 12.7405 3.35577 13.008 3.62099 13.1406L4.06821 12.2462C4.14552 12.2848 4.18784 12.3603 4.1894 12.4349L3.18961 12.4558ZM2.23246 9.24375C2.34046 9.32474 2.40895 9.37623 2.45869 9.41689C2.50859 9.45768 2.51546 9.46851 2.51088 9.4626L3.30111 8.84979C3.18887 8.70506 3.01093 8.57758 2.8324 8.44371L2.23246 9.24375ZM3.53174 9.29351C3.47104 9.14663 3.41111 8.99164 3.30111 8.84979L2.51088 9.4626C2.52073 9.47531 2.52994 9.48764 2.60753 9.6754L3.53174 9.29351ZM7.45438 8.44371C7.27585 8.57758 7.09791 8.70506 6.98566 8.84979L7.7759 9.4626C7.77132 9.46851 7.77819 9.45768 7.82809 9.41689C7.87783 9.37623 7.94632 9.32474 8.05432 9.24375L7.45438 8.44371ZM7.67925 9.6754C7.75683 9.48764 7.76604 9.47531 7.7759 9.4626L6.98566 8.84979C6.87566 8.99164 6.81573 9.14663 6.75504 9.29351L7.67925 9.6754ZM6.77281 9.61134C5.72682 10.0297 4.55996 10.0297 3.51397 9.61134L3.14258 10.5398C4.42698 11.0536 5.8598 11.0536 7.1442 10.5398L6.77281 9.61134ZM4.91734 8.26047V6.08233H3.91734V8.26047H4.91734ZM4.91734 6.08233V5.17477H3.91734V6.08233H4.91734ZM3.50978 6.58233H4.41734V5.58233H3.50978V6.58233ZM4.41734 6.58233H5.86944V5.58233H4.41734V6.58233ZM5.86944 6.58233H6.77699V5.58233H5.86944V6.58233ZM5.36944 5.17477V6.08233H6.36944V5.17477H5.36944ZM5.36944 6.08233V8.26047H6.36944V6.08233H5.36944ZM6.77699 3.76721C5.99962 3.76721 5.36944 4.3974 5.36944 5.17477H6.36944C6.36944 4.94968 6.55191 4.76721 6.77699 4.76721V3.76721ZM8.18455 5.17477C8.18455 4.3974 7.55437 3.76721 6.77699 3.76721V4.76721C7.00208 4.76721 7.18455 4.94968 7.18455 5.17477H8.18455ZM6.77699 6.58233C7.55437 6.58233 8.18455 5.95214 8.18455 5.17477H7.18455C7.18455 5.39986 7.00208 5.58233 6.77699 5.58233V6.58233ZM2.10223 5.17477C2.10223 5.95214 2.73241 6.58233 3.50978 6.58233V5.58233C3.2847 5.58233 3.10223 5.39986 3.10223 5.17477H2.10223ZM3.50978 3.76721C2.73241 3.76721 2.10223 4.3974 2.10223 5.17477H3.10223C3.10223 4.94968 3.2847 4.76721 3.50978 4.76721V3.76721ZM4.91734 5.17477C4.91734 4.3974 4.28716 3.76721 3.50978 3.76721V4.76721C3.73487 4.76721 3.91734 4.94968 3.91734 5.17477H4.91734Z" fill="#CD9A32"/>
</svg>
