<svg width="14" height="14" viewBox="0 0 14 14" fill="none" xmlns="http://www.w3.org/2000/svg">
<path d="M7 13L1.6797 6.34963C1.34718 5.93398 1.18092 5.72615 1.13625 5.4757C1.09159 5.22524 1.17575 4.97276 1.34407 4.46778L1.5883 3.73509C2.02832 2.41505 2.24832 1.75503 2.7721 1.37752C3.29587 1 3.99159 1 5.38304 1H8.61696C10.0084 1 10.7041 1 11.2279 1.37752C11.7517 1.75503 11.9717 2.41505 12.4117 3.73509L12.6559 4.46778C12.8243 4.97276 12.9084 5.22524 12.8637 5.4757C12.8191 5.72615 12.6528 5.93398 12.3203 6.34963L7 13ZM7 13L9.625 4.75M7 13L4.375 4.75M12.625 5.5L9.625 4.75M9.625 4.75L8.5 1.75M9.625 4.75H4.375M5.5 1.75L4.375 4.75M4.375 4.75L1.375 5.5" stroke="#22D265" stroke-linecap="round"/>
</svg>
