<svg width="63" height="61" viewBox="0 0 63 61" fill="none" xmlns="http://www.w3.org/2000/svg">
<path d="M32.8466 51.6166C32.5562 51.913 32.4769 52.2705 32.4505 52.6715C32.4241 53.2207 32.4153 53.7263 32.1777 54.2319C31.9753 54.6678 31.6232 55.1385 31.1303 55.2431C30.7167 55.3303 30.8399 54.7985 30.8399 54.537C30.8399 54.2319 30.8311 53.9181 30.8311 53.613C30.8311 53.3078 30.3646 53.2381 30.2854 53.5432C30.1974 53.9006 30.0478 54.2842 29.6957 54.4673C29.4317 54.6068 29.1852 54.5632 29.1324 54.2406C29.106 54.0924 29.1412 53.9355 29.1236 53.7873C29.0884 53.5345 28.7628 53.395 28.6044 53.6478C28.1731 54.3714 27.0641 54.3016 26.316 54.354C25.4887 54.4063 24.6614 54.3975 23.8428 54.2406C23.4908 54.1709 23.3412 54.7027 23.6932 54.7637C24.7142 54.9555 25.7439 54.9555 26.7737 54.8596C27.6538 54.7724 28.5868 54.7637 29.0884 53.9268C28.9124 53.8832 28.7452 53.8309 28.5692 53.7873C28.6132 54.1011 28.5163 54.4498 28.6748 54.7462C28.8332 55.0339 29.1676 55.1211 29.4845 55.0949C30.2326 55.0252 30.6551 54.3452 30.8223 53.6914C30.6375 53.6653 30.4614 53.6391 30.2766 53.6217C30.2766 54.0314 30.2854 54.4411 30.2854 54.8509C30.2854 55.1298 30.2414 55.4785 30.4878 55.679C30.8927 56.0103 31.544 55.7488 31.9049 55.4785C32.3977 55.1037 32.7146 54.5283 32.873 53.9442C32.961 53.6217 32.9874 53.2991 32.9962 52.9766C33.005 52.6453 32.9874 52.2792 33.2339 52.0176C33.4891 51.7474 33.093 51.3551 32.8466 51.6166Z" fill="#07194B"/>
<path d="M25.3303 53.273C25.0222 53.1335 24.6878 53.2904 24.6261 53.6391C24.6085 53.7437 24.6437 53.8396 24.6349 53.9355C24.5997 54.1709 24.4765 54.1622 24.2917 54.1883C23.9748 54.2319 23.658 54.2406 23.35 54.2668C22.7163 54.3191 22.0914 54.3714 21.4577 54.4324C20.9032 54.4847 20.3047 54.476 19.7854 54.6765C19.4598 54.7985 19.6006 55.3303 19.935 55.1996C20.4543 54.9991 21.0616 55.0078 21.6161 54.9555C22.2234 54.9032 22.8219 54.8509 23.4292 54.7985C23.8604 54.7637 24.4149 54.8073 24.8198 54.6068C24.9606 54.537 25.0838 54.4324 25.1454 54.2842C25.1718 54.2232 25.1982 53.735 25.1982 53.735C25.1278 53.7263 25.0574 53.7176 24.987 53.7089C25.0134 53.7176 25.0398 53.7263 25.0574 53.7437C25.3743 53.8832 25.6559 53.4125 25.3303 53.273Z" fill="#07194B"/>
<path d="M20.023 54.8596C19.9878 54.5545 19.8734 54.3104 19.6798 54.0663C19.4774 53.8047 19.1605 53.5345 19.1165 53.1945C19.0725 52.8545 18.5268 52.8458 18.562 53.1945C18.5884 53.456 18.6148 53.7263 18.6412 53.9878C18.65 54.0837 18.7909 54.7114 18.7204 54.7811C18.6324 54.877 18.254 54.7985 18.122 54.8073C17.8579 54.8073 17.5851 54.8073 17.321 54.8073C16.2737 54.8073 15.2263 54.8073 14.1878 54.8073C13.8269 54.8073 13.8269 55.3565 14.1878 55.3565C15.4992 55.3565 16.8106 55.3565 18.1308 55.3565C18.5004 55.3565 19.1253 55.4611 19.2661 54.9991C19.3365 54.7637 19.2485 54.4586 19.2309 54.2319C19.1957 53.8919 19.1605 53.5432 19.1253 53.2032C18.9405 53.2032 18.7557 53.2032 18.5708 53.2032C18.606 53.5084 18.7292 53.7524 18.9141 53.9965C19.1165 54.2581 19.4334 54.5196 19.4686 54.8683C19.5126 55.2083 20.0671 55.2083 20.023 54.8596Z" fill="#07194B"/>
<path d="M13.8709 53.6304C13.8357 54.1011 13.7829 54.5719 13.7301 55.0426C13.6949 55.3303 13.6509 55.618 13.6069 55.9057C13.5893 56.0364 13.5805 56.5072 13.4925 56.5856C13.4308 56.638 13.422 56.5856 13.3604 56.4897C13.3076 56.4113 13.2812 56.3067 13.2372 56.2195C13.1492 56.0277 13.0436 55.8447 12.9204 55.6703C12.6827 55.3216 12.4011 55.0078 12.0754 54.7288C11.8994 54.5719 11.6002 54.6765 11.6002 54.9206C11.6002 55.3129 11.653 55.6965 11.521 56.08C11.6882 56.0626 11.8554 56.0364 12.0314 56.019C11.7762 55.6703 11.5914 55.278 11.2481 54.9903C11.1425 54.9032 10.9577 54.8683 10.8521 54.9903C9.69028 56.3241 7.64837 56.1062 6.08173 56.6031C5.74728 56.7077 5.8881 57.2395 6.23135 57.1261C7.9124 56.5944 9.98952 56.8036 11.2481 55.3652C11.1161 55.3652 10.9841 55.3652 10.8521 55.3652C11.1601 55.618 11.3185 55.9667 11.5474 56.2805C11.6882 56.4723 11.9786 56.4462 12.0578 56.2195C12.2075 55.7923 12.1547 55.3652 12.1547 54.9206C11.9962 54.9816 11.8378 55.0514 11.6794 55.1124C12.1723 55.5395 12.5331 56.0364 12.8059 56.6205C12.9644 56.9605 13.29 57.3702 13.7301 57.1348C14.1702 56.9082 14.135 56.0626 14.1878 55.6529C14.2846 54.9729 14.3638 54.2929 14.4166 53.613C14.4606 53.273 13.9061 53.2817 13.8709 53.6304Z" fill="#07194B"/>
<path d="M6.21375 56.0103C6.35457 56.5856 6.40738 57.1697 6.34577 57.7625C6.26655 58.5297 5.87049 58.8173 5.2632 59.2183C4.84073 59.4973 4.44467 59.7937 4.06622 60.1163C3.90779 60.2557 3.76697 60.3429 3.55574 60.3865C2.97485 60.4998 2.29715 60.3865 1.83948 60.0029C1.3202 59.5583 0.809721 58.7912 0.774516 58.1025C0.721708 56.9343 0.836125 55.7488 0.818523 54.5806C0.818523 54.2319 0.255238 54.2319 0.264039 54.5806C0.272841 55.6616 0.228834 56.7338 0.220033 57.8148C0.211231 58.5035 0.396059 59.0178 0.783318 59.5845C1.11777 60.0639 1.46102 60.5173 2.01551 60.7614C2.6228 61.0316 3.56454 61.1275 4.16303 60.7526C4.38307 60.6132 4.56789 60.4127 4.77032 60.247C5.23679 59.8722 5.78248 59.6019 6.23135 59.2183C7.15549 58.4425 6.99707 56.9169 6.74183 55.8795C6.67142 55.5221 6.13453 55.6703 6.21375 56.0103Z" fill="#07194B"/>
<path d="M3.74057 52.131C3.72297 52.131 3.69656 52.1223 3.67896 52.1135C3.70536 52.1223 3.72297 52.131 3.74937 52.1397C3.73177 52.131 3.71416 52.1223 3.69656 52.1135C3.71416 52.131 3.73177 52.1397 3.74937 52.1571C3.73177 52.1397 3.71416 52.1223 3.69656 52.1048C3.71416 52.1223 3.72297 52.1397 3.74057 52.1571C3.73177 52.1397 3.71417 52.1223 3.70536 52.1048C3.71417 52.1223 3.72297 52.1484 3.73177 52.1658C3.72297 52.1484 3.72296 52.131 3.71416 52.1048C3.71416 52.131 3.72297 52.1571 3.72297 52.1746V52.1658C3.71416 52.0874 3.69656 52.0264 3.64375 51.9741C3.59975 51.9305 3.52053 51.8869 3.45012 51.8956C3.37971 51.8956 3.3005 51.9218 3.2565 51.9741C3.21249 52.0264 3.16848 52.0961 3.17728 52.1658C3.19489 52.2966 3.23009 52.4012 3.3269 52.4971C3.39732 52.5669 3.50293 52.6279 3.59975 52.6453C3.67896 52.654 3.74057 52.654 3.81098 52.6192C3.87259 52.5843 3.9254 52.5233 3.9342 52.4535C3.9518 52.3838 3.943 52.3053 3.90779 52.2443C3.86379 52.2007 3.81098 52.1397 3.74057 52.131Z" fill="#07194B"/>
<path d="M11.3537 53.0812C11.7146 53.0812 11.7146 52.532 11.3537 52.532C10.9929 52.5407 10.9929 53.0812 11.3537 53.0812Z" fill="#07194B"/>
<path d="M11.785 52.2705C12.1458 52.2705 12.1458 51.7213 11.785 51.7213C11.4241 51.7213 11.4241 52.2705 11.785 52.2705Z" fill="#07194B"/>
<path d="M12.2867 52.9766C12.6475 52.9766 12.6475 52.4274 12.2867 52.4274C11.9258 52.4274 11.9258 52.9766 12.2867 52.9766Z" fill="#07194B"/>
<path d="M16.6697 58.3902C17.0306 58.3902 17.0306 57.841 16.6697 57.841C16.3089 57.841 16.3089 58.3902 16.6697 58.3902Z" fill="#07194B"/>
<path d="M18.9317 57.3964C19.2925 57.3964 19.2925 56.8472 18.9317 56.8472C18.5708 56.8472 18.5708 57.3964 18.9317 57.3964Z" fill="#07194B"/>
<path d="M21.3344 51.0326C21.6953 51.0326 21.6953 50.4834 21.3344 50.4834C20.9824 50.4834 20.9824 51.0326 21.3344 51.0326Z" fill="#07194B"/>
<path d="M23.4556 51.3115C23.8164 51.3115 23.8164 50.7623 23.4556 50.7623C23.1035 50.771 23.1035 51.3115 23.4556 51.3115Z" fill="#07194B"/>
<path d="M60.0868 56.7774C60.122 56.4723 60.4916 56.298 60.7204 56.141C60.9493 55.9754 61.1781 55.8011 61.3805 55.6093C61.7766 55.2344 62.1199 54.8073 62.4015 54.3452C62.5775 54.0488 62.7976 53.5781 62.3663 53.3863C61.8998 53.1771 61.2309 53.4909 60.8701 53.7612C60.5884 53.9791 60.3508 54.136 59.9899 54.197C59.6379 54.2581 59.2682 54.2581 58.9074 54.2755C58.1945 54.3104 57.4903 54.3452 56.7774 54.3801C56.4166 54.3975 56.0469 54.4237 55.6861 54.4324C55.4308 54.4324 55.0964 54.4498 54.938 54.2058C54.7971 53.9791 54.8676 53.613 54.8411 53.3602C54.8235 53.1248 54.7707 52.9156 54.6387 52.715C54.4891 52.4884 54.1282 52.5756 54.1194 52.8545C54.1106 53.0725 54.1018 53.2991 54.093 53.5171C54.093 53.5694 54.1194 53.857 54.0754 53.8832C54.049 53.9006 53.8114 53.8832 53.7762 53.8832C53.2921 53.9006 52.808 53.9355 52.3328 53.9442C51.8487 53.9529 51.3646 53.9529 50.8805 53.9442C50.6869 53.9355 50.2821 53.9965 50.15 53.8396C50.0356 53.7001 50.0268 53.2643 50.018 53.1161C49.9388 52.253 50.018 51.3813 49.9212 50.5182C49.8332 49.6988 49.6308 48.9055 49.2611 48.1558C49.1027 47.8419 48.6274 48.1209 48.7858 48.4347C49.2875 49.4373 49.4107 50.5444 49.4371 51.6515C49.4459 52.2094 49.4195 52.7761 49.4899 53.334C49.5339 53.6653 49.5691 54.1796 49.8948 54.3801C50.062 54.4847 50.2997 54.4673 50.4845 54.476C50.7837 54.4847 51.0742 54.4934 51.3734 54.4934C51.9631 54.5021 52.5528 54.4847 53.1425 54.4586C53.5033 54.4411 54.2427 54.537 54.5155 54.2406C54.6475 54.1011 54.6387 53.9006 54.6475 53.7263C54.6651 53.4299 54.6739 53.1335 54.6827 52.8371C54.5067 52.8807 54.3395 52.933 54.1634 52.9766C54.4451 53.395 54.2075 53.9617 54.4363 54.415C54.6563 54.8421 55.1228 54.9555 55.5717 54.9642C56.2406 54.9729 56.9271 54.9032 57.596 54.8683C58.2825 54.8334 58.9778 54.816 59.6643 54.7637C60.2276 54.7201 60.6676 54.5893 61.1165 54.2406C61.2661 54.1273 61.407 54.0227 61.583 53.9529C61.6446 53.9268 62.0582 53.8396 62.0494 53.8222C62.0934 53.8832 61.6974 54.3975 61.6358 54.476C61.2749 54.9642 60.8261 55.3739 60.3332 55.7226C59.9371 55.9928 59.5851 56.2544 59.5323 56.7513C59.4971 57.1261 60.0515 57.1261 60.0868 56.7774Z" fill="#07194B"/>
<path d="M47.0696 53.7612C46.9992 54.3975 47.008 55.1211 46.6823 55.7052C46.3831 56.2369 45.8462 56.638 45.3357 56.9518C44.1299 57.7102 42.7217 58.1199 41.3047 58.2594C40.9526 58.2943 40.9526 58.8435 41.3047 58.8086C42.8801 58.6517 44.438 58.2071 45.7582 57.3354C46.3039 56.9692 46.8759 56.5246 47.184 55.9405C47.5272 55.278 47.536 54.4934 47.6152 53.7699C47.6681 53.4125 47.1136 53.4125 47.0696 53.7612Z" fill="#07194B"/>
<path d="M38.9811 53.4299C39.5444 53.4735 40.1429 53.4735 40.6974 53.5955C41.1903 53.7001 41.6127 53.9704 42.1232 54.0052C42.4049 54.0227 42.7041 54.0227 42.9857 53.9878C43.153 53.9704 43.1002 53.9442 43.0738 54.0401C43.0474 54.1447 42.9857 54.2493 42.9329 54.3452C42.6953 54.7985 42.4049 55.217 42.0264 55.5657C41.2871 56.2457 40.1517 56.6118 39.1836 56.1759C38.0306 55.6616 38.6203 54.075 39.122 53.2904C39.3156 52.994 38.8315 52.7151 38.6467 53.0114C38.0394 53.9529 37.4849 55.6965 38.6291 56.481C39.6764 57.2046 41.1639 56.9082 42.1232 56.1846C42.6425 55.7923 43.0474 55.2867 43.3554 54.7201C43.5402 54.3801 43.9275 53.7001 43.3818 53.4735C43.0914 53.3514 42.7217 53.4473 42.4137 53.4473C41.9824 53.4473 41.6479 53.3166 41.2519 53.1771C40.5478 52.9156 39.7292 52.933 38.9811 52.872C38.6291 52.8545 38.6291 53.4037 38.9811 53.4299Z" fill="#07194B"/>
<path d="M42.5633 51.6602C42.9241 51.6602 42.9241 51.111 42.5633 51.111C42.2024 51.111 42.2024 51.6602 42.5633 51.6602Z" fill="#07194B"/>
<path d="M40.5654 50.9192C40.9262 50.9192 40.9262 50.37 40.5654 50.37C40.2045 50.37 40.2045 50.9192 40.5654 50.9192Z" fill="#07194B"/>
<path d="M51.6639 55.9493C51.5054 56.019 51.3294 56.0452 51.1622 56.019C51.0126 55.9929 50.8629 56.0539 50.8189 56.2108C50.7837 56.3416 50.8629 56.5246 51.0126 56.5508C51.3382 56.6031 51.6463 56.5682 51.9455 56.42C52.0775 56.359 52.1127 56.1672 52.0423 56.0452C51.9631 55.9057 51.7959 55.8795 51.6639 55.9493Z" fill="#07194B"/>
<path d="M53.4241 56.5421C53.6002 56.5856 53.7586 56.6554 53.917 56.7513C54.2251 56.9343 54.4979 56.4636 54.1987 56.2805C54.005 56.1672 53.7938 56.0713 53.5738 56.019C53.2305 55.9318 53.0809 56.4549 53.4241 56.5421Z" fill="#07194B"/>
<path d="M14.6982 40.1705C15.0503 39.9787 15.552 39.6474 15.86 39.5864C16.1065 39.5341 16.6433 39.6823 16.9778 39.7869C18.0075 40.1182 19.2397 41.0074 19.3717 42.1058C19.4334 42.6724 19.2485 43.1868 18.8613 43.6052C18.6324 43.858 18.3772 44.076 18.122 44.2939C17.8931 44.4857 17.6291 44.8257 17.3122 44.8605C17.0306 44.8954 16.6961 44.7908 16.3969 44.7995C15.9832 44.8082 15.5784 44.8431 15.1647 44.7472C14.5398 44.599 13.9941 44.2416 13.6245 43.7273C13.1404 43.056 12.7091 42.3412 13.1932 41.5566C13.5629 40.9464 14.0821 40.5105 14.6982 40.1705C15.3055 39.8305 14.7598 38.9064 14.1526 39.2464C13.4396 39.6474 12.8412 40.1531 12.3747 40.8243C11.7762 41.6786 11.7322 42.5765 12.2251 43.4832C12.6299 44.2416 13.1228 44.939 13.8973 45.3749C14.2846 45.5928 14.7158 45.7497 15.1559 45.8195C15.6752 45.9066 16.1769 45.8369 16.6873 45.8543C17.1098 45.8718 17.4707 45.9677 17.8843 45.802C18.2892 45.6277 18.6324 45.279 18.9581 44.9913C19.5566 44.4682 20.1551 43.9016 20.3663 43.117C20.8152 41.4956 19.7502 40.0484 18.386 39.2551C17.6819 38.8454 16.7313 38.4706 15.8952 38.5054C15.2791 38.5316 14.6718 38.9588 14.1526 39.2464C13.5453 39.5864 14.0909 40.5105 14.6982 40.1705Z" fill="#0A1859"/>
<path d="M41.3311 40.3884C41.6391 40.1705 41.9472 39.9613 42.2728 39.7608C42.3609 39.7085 42.4489 39.6562 42.5457 39.6039C42.6689 39.5428 42.4929 39.5951 42.5985 39.5777C43.1002 39.5254 43.7603 39.8305 44.1739 40.0746C45.3621 40.7546 46.3127 41.9925 46.3127 43.3873C46.3127 44.1283 46.0926 44.7734 45.6438 45.3662C45.4149 45.6713 45.1421 45.9589 44.878 46.2379C44.5876 46.5517 44.3588 46.9702 43.8923 46.8917C43.0033 46.7435 42.1584 47.0312 41.3311 46.5517C40.671 46.1769 40.2661 45.5492 39.9493 44.878C39.7557 44.4682 39.518 44.0237 39.4652 43.5703C39.4124 43.0734 39.562 42.5765 39.7909 42.1494C40.1693 41.4345 40.6798 40.8417 41.3311 40.3884C41.8944 39.9961 41.3575 39.0634 40.7854 39.4644C39.2364 40.5453 37.8458 42.5329 38.5939 44.4682C38.9635 45.4097 39.4124 46.4035 40.2045 47.0748C41.0847 47.8158 42.0616 47.9553 43.1882 47.9204C43.6546 47.903 44.0947 48.0773 44.5524 47.9204C45.0541 47.746 45.4149 47.2491 45.7582 46.8743C46.3919 46.1856 47.0168 45.462 47.2544 44.538C47.7297 42.7073 46.9375 40.8679 45.4941 39.691C44.7548 39.0808 43.6899 38.5142 42.6953 38.4967C41.9736 38.488 41.3223 39.0808 40.7678 39.4557C40.2133 39.8567 40.759 40.7894 41.3311 40.3884Z" fill="#0A1859"/>
<path d="M16.4585 40.9899C16.8036 40.9899 17.0834 40.7167 17.0834 40.3797C17.0834 40.0427 16.8036 39.7695 16.4585 39.7695C16.1134 39.7695 15.8336 40.0427 15.8336 40.3797C15.8336 40.7167 16.1134 40.9899 16.4585 40.9899Z" fill="#0A1859"/>
<path d="M43.505 41.3125C43.8501 41.3125 44.1299 41.0393 44.1299 40.7023C44.1299 40.3652 43.8501 40.092 43.505 40.092C43.1599 40.092 42.8801 40.3652 42.8801 40.7023C42.8801 41.0393 43.1599 41.3125 43.505 41.3125Z" fill="#0A1859"/>
<path d="M42.264 42.4371C42.6092 42.4371 42.8889 42.1638 42.8889 41.8268C42.8889 41.4898 42.6092 41.2166 42.264 41.2166C41.9189 41.2166 41.6391 41.4898 41.6391 41.8268C41.6391 42.1638 41.9189 42.4371 42.264 42.4371Z" fill="#0A1859"/>
<path d="M41.023 44.9739C41.3682 44.9739 41.6479 44.7007 41.6479 44.3636C41.6479 44.0266 41.3682 43.7534 41.023 43.7534C40.6779 43.7534 40.3981 44.0266 40.3981 44.3636C40.3981 44.7007 40.6779 44.9739 41.023 44.9739Z" fill="#0A1859"/>
<path d="M45.0893 43.4396C45.4344 43.4396 45.7142 43.1664 45.7142 42.8293C45.7142 42.4923 45.4344 42.2191 45.0893 42.2191C44.7442 42.2191 44.4644 42.4923 44.4644 42.8293C44.4644 43.1664 44.7442 43.4396 45.0893 43.4396Z" fill="#0A1859"/>
<path d="M43.8483 46.1943C44.1934 46.1943 44.4732 45.9211 44.4732 45.5841C44.4732 45.2471 44.1934 44.9739 43.8483 44.9739C43.5032 44.9739 43.2234 45.2471 43.2234 45.5841C43.2234 45.9211 43.5032 46.1943 43.8483 46.1943Z" fill="#0A1859"/>
<path d="M15.2175 42.2104C15.5626 42.2104 15.8424 41.9372 15.8424 41.6002C15.8424 41.2631 15.5626 40.9899 15.2175 40.9899C14.8724 40.9899 14.5926 41.2631 14.5926 41.6002C14.5926 41.9372 14.8724 42.2104 15.2175 42.2104Z" fill="#0A1859"/>
<path d="M15.2175 43.7534C15.5626 43.7534 15.8424 43.4802 15.8424 43.1432C15.8424 42.8062 15.5626 42.5329 15.2175 42.5329C14.8724 42.5329 14.5926 42.8062 14.5926 43.1432C14.5926 43.4802 14.8724 43.7534 15.2175 43.7534Z" fill="#0A1859"/>
<path d="M17.4267 44.3636C17.7718 44.3636 18.0515 44.0904 18.0515 43.7534C18.0515 43.4164 17.7718 43.1432 17.4267 43.1432C17.0815 43.1432 16.8018 43.4164 16.8018 43.7534C16.8018 44.0904 17.0815 44.3636 17.4267 44.3636Z" fill="#0A1859"/>
<path d="M18.518 42.2104C18.8631 42.2104 19.1429 41.9372 19.1429 41.6002C19.1429 41.2631 18.8631 40.9899 18.518 40.9899C18.1729 40.9899 17.8931 41.2631 17.8931 41.6002C17.8931 41.9372 18.1729 42.2104 18.518 42.2104Z" fill="#0A1859"/>
<path d="M1.15298 24.7317C1.56664 24.845 1.9979 24.8537 2.41157 24.9496C2.91324 25.0543 3.41492 25.1153 3.9166 25.2199C4.99036 25.4465 6.07292 25.6122 7.16429 25.7778C8.24685 25.9434 9.33822 26.1004 10.412 26.3183C11.4153 26.5188 12.4011 26.7978 13.4044 27.0244C14.443 27.2598 15.4816 27.408 16.5377 27.53C17.2506 27.6172 18.6588 27.9223 18.8173 26.9111C18.8437 26.7542 18.8085 26.5973 18.8173 26.4403C18.8261 26.2486 18.8789 26.0655 18.8965 25.8737C18.9493 25.3942 19.0109 24.9061 19.0549 24.4266C19.1517 23.363 19.0549 22.2995 19.2397 21.2447C19.407 20.2683 19.6094 19.3007 19.6974 18.3069C19.7678 17.5136 19.7502 16.7203 19.7942 15.9183C19.8118 15.6829 19.803 15.3255 19.9262 15.1162C20.1111 14.8198 20.6391 14.8198 20.9648 14.846C21.4313 14.8809 21.8977 15.0378 22.3554 15.1424C22.9011 15.2644 23.4556 15.3516 24.0101 15.4039C25.075 15.5085 26.1488 15.587 27.2049 15.7352C28.2523 15.8834 29.2909 16.049 30.347 16.1449C31.4384 16.2408 32.5298 16.3105 33.6299 16.3977C34.6421 16.4849 35.6278 16.5895 36.6488 16.5982C38.7875 16.6069 40.935 16.4239 43.0738 16.5808C43.329 16.5982 43.5842 16.6244 43.8483 16.6505C44.0243 16.668 44.482 16.8162 44.6492 16.7639C44.6404 16.7639 44.9044 16.7639 44.746 16.668C44.6932 16.6331 44.7372 16.7551 44.7284 16.8074C44.702 16.9818 44.6844 17.1561 44.658 17.3218C44.5348 18.2371 44.4908 19.1961 44.4556 20.1201C44.4116 21.1314 44.3323 22.1513 44.3147 23.1625C44.2971 24.2522 44.3236 25.3332 44.2971 26.4229C44.2795 27.1988 43.9803 28.4018 44.4556 29.0905C44.878 29.7181 45.635 29.9535 46.3655 29.971C47.1224 29.9884 47.8705 29.7792 48.6274 29.7617C49.5779 29.7356 50.5725 29.5176 51.4966 29.3084C52.5 29.0818 53.5298 29.0295 54.5595 28.9248C55.6421 28.8115 56.7158 28.6633 57.7896 28.5064C58.881 28.3582 59.9811 28.2013 61.0813 28.0967C61.2573 28.0792 61.495 27.9921 61.5918 28.1228C61.671 28.2274 61.6182 28.6284 61.6182 28.7418C61.6182 29.1341 61.6182 29.5264 61.6006 29.9099C61.5918 30.0145 61.5918 30.1192 61.583 30.2238C61.5742 30.372 61.6006 30.1104 61.5742 30.2761C61.5566 30.4068 61.5302 30.5376 61.5214 30.6684C61.4862 30.9386 61.4774 31.2088 61.4598 31.4791C61.3277 34.0159 61.3629 36.5614 61.3541 39.0895C61.3453 40.0833 61.3453 41.0858 61.3453 42.0796C61.3453 42.3063 61.2221 42.4981 61.5126 42.2104C61.7942 41.9227 61.6182 42.0448 61.3806 42.0535C61.0813 42.0622 60.7821 42.0709 60.4916 42.0796C59.9371 42.0971 59.3826 42.1145 58.8194 42.1407C56.8215 42.2104 54.8588 42.2191 52.8961 42.6376C51.8839 42.8468 50.8806 43.0822 49.8508 43.1345C50.0004 43.4919 50.15 43.8493 50.2997 44.198C51.1974 43.1693 50.8629 41.8791 50.3877 40.7284C50.1412 40.1269 49.7804 39.5341 49.578 38.9239C49.3755 38.3136 49.2963 37.7209 48.9355 37.1629C47.8001 35.4107 45.4325 34.5913 43.3994 34.5825C41.3927 34.5738 39.342 35.3671 38.0658 36.9363C37.3441 37.8255 37.0184 38.9064 36.464 39.8915C36.1911 40.371 35.7246 40.6935 35.2406 40.9725C34.6949 41.2863 34.0172 41.3822 33.4011 41.3212C31.7288 41.1643 30.0478 41.112 28.3667 41.0597C27.4602 41.0335 26.5624 41.0074 25.6559 40.9899C25.2598 40.9812 24.855 40.9725 24.4501 40.9812C24.2301 40.9899 23.8604 41.0684 23.6404 40.9987C23.7636 41.0946 23.8956 41.1904 24.0189 41.2863C23.9484 41.173 23.966 40.8417 23.9396 40.6935C23.8956 40.432 23.8516 40.1792 23.79 39.9177C23.702 39.5254 23.5524 39.1418 23.3676 38.7844C23.0243 38.1393 22.505 37.6075 21.9241 37.1629C20.7712 36.2825 19.3982 35.6286 18.122 34.94C17.3474 34.5215 16.4497 34.26 15.5608 34.2774C14.6278 34.2861 13.8445 34.6348 13.0964 35.1579C11.7058 36.1343 10.7816 37.625 10.28 39.2116C10.1479 39.6213 10.0511 40.0397 9.98072 40.4582C9.91031 40.8766 9.96312 41.4345 9.79589 41.8268C9.53185 42.4719 8.66932 42.254 8.12364 42.254C6.97066 42.2627 5.81768 42.3935 4.65591 42.376C3.74937 42.3586 2.56999 42.2976 1.9451 41.5479C1.64585 41.1817 1.54023 40.6848 1.53143 40.2228C1.50503 39.2726 1.54023 38.3311 1.58424 37.3809C1.62825 36.1866 1.65465 34.9835 1.62825 33.7892C1.59304 32.6037 1.68106 31.4355 1.71626 30.2499C1.75147 29.0207 1.76907 27.7828 1.81308 26.5537C1.84828 25.3681 1.88348 24.1825 2.12992 23.0231C2.29715 22.2385 1.07376 21.9072 0.906536 22.6918C0.53688 24.4004 0.545681 26.1701 0.510476 27.9223C0.466469 29.7269 0.316848 31.5488 0.352053 33.3534C0.387258 35.1579 0.299244 36.945 0.255238 38.7495C0.228834 39.8654 0.149622 41.1817 0.827325 42.1494C1.9715 43.7708 4.28625 43.6837 6.06412 43.6052C6.99706 43.5616 7.94761 43.4657 8.88055 43.5442C9.56706 43.5965 10.2448 43.3001 10.6936 42.7858C11.2129 42.193 11.0985 41.3822 11.2305 40.6587C11.4946 39.2464 12.0754 37.8429 13.1052 36.7968C13.5541 36.3435 14.1438 35.864 14.7686 35.6635C15.4816 35.4281 16.2649 35.5415 16.9602 35.7943C17.5675 36.0122 18.1044 36.4045 18.6676 36.7096C19.2221 37.006 19.7766 37.285 20.3223 37.6075C21.3609 38.2178 22.2762 39.0023 22.5666 40.2054C22.6634 40.5976 22.7251 40.9987 22.7867 41.3909C22.8483 41.7745 22.9187 42.1145 23.35 42.2365C23.614 42.3063 23.9132 42.2627 24.1861 42.254C24.6085 42.2453 25.031 42.2453 25.4623 42.254C27.337 42.2889 29.2205 42.3499 31.0951 42.4371C32.697 42.5155 34.4044 42.8904 35.8743 42.0709C36.4728 41.7397 37.1152 41.2863 37.4673 40.6935C37.837 40.0746 38.1098 39.4121 38.409 38.7582C39.3948 36.5963 41.8768 35.6286 44.1651 35.9076C45.3445 36.0471 46.6119 36.5266 47.448 37.3722C47.6681 37.5988 47.8529 37.8429 47.9937 38.1306C48.1697 38.4793 48.1873 38.8367 48.2929 39.2028C48.5306 39.9874 49.0147 40.7197 49.3051 41.4956C49.5075 42.0273 49.8244 42.8468 49.3843 43.3524C49.0587 43.736 49.2435 44.4508 49.8332 44.4159C51.9367 44.3026 53.9434 43.5093 56.0469 43.518C57.0855 43.5267 58.1417 43.4396 59.1802 43.4047C59.7435 43.3873 60.3068 43.3698 60.8613 43.3437C61.3189 43.3262 61.9614 43.4221 62.3311 43.0734C62.6303 42.7858 62.5951 42.3848 62.5951 42.0099C62.5951 41.4171 62.5951 40.833 62.6039 40.2402C62.6039 39.29 62.6127 38.3398 62.6215 37.3809C62.6303 35.9773 62.6391 34.5738 62.6655 33.179C62.6831 32.4119 62.6919 31.636 62.7624 30.8689C62.7712 30.8078 62.7712 30.7555 62.78 30.6945C62.7712 30.773 62.7976 30.5376 62.78 30.6945C62.8064 30.5463 62.8328 30.3981 62.8416 30.2412C62.912 29.5089 62.9648 28.6633 62.8328 27.9398C62.7536 27.5213 62.5247 27.1552 62.1375 26.9634C61.6622 26.728 61.0989 26.8588 60.5972 26.9198C59.5147 27.0331 58.4321 27.1901 57.3583 27.3383C55.202 27.6346 53.0193 27.748 50.8893 28.1926C50.3525 28.3059 49.798 28.3931 49.2523 28.4802C48.821 28.55 48.3986 28.5413 47.9673 28.5936C47.3248 28.672 46.4535 28.9248 45.8286 28.6633C45.4765 28.5151 45.4941 28.271 45.5029 27.9223C45.5205 27.3993 45.5645 26.8762 45.5733 26.3532C45.5997 25.2373 45.5733 24.1128 45.5909 22.9969C45.6085 21.9595 45.6702 20.9134 45.7494 19.876C45.8198 18.9781 45.8374 18.0628 45.9606 17.1736C46.0838 16.2931 45.8198 15.7178 44.8868 15.5696C43.7515 15.3865 42.5985 15.308 41.4543 15.2906C39.342 15.2732 37.2033 15.5172 35.0997 15.3167C32.8554 15.1075 30.5847 15.0291 28.3491 14.6891C26.1928 14.3665 24.0101 14.2706 21.8889 13.7737C21.0264 13.5732 19.8558 13.4686 19.1429 14.1137C18.6412 14.567 18.562 15.3167 18.5268 15.9531C18.474 16.8074 18.5004 17.6618 18.4124 18.5161C18.3068 19.536 18.0603 20.5386 17.9283 21.5585C17.7875 22.6395 17.8755 23.7292 17.7611 24.8102C17.7171 25.2548 17.6643 25.6906 17.5851 26.1178C17.5587 26.266 17.5147 26.5101 17.5675 26.6496C17.5675 26.6844 17.5675 26.7193 17.5763 26.7629C17.6819 26.6408 17.7875 26.5101 17.8843 26.388C17.8843 26.388 17.321 26.388 17.2946 26.388C15.1207 26.2834 13.0612 25.6209 10.9489 25.185C8.73093 24.7317 6.47779 24.5138 4.26865 24.043C3.81978 23.9471 3.37091 23.8861 2.92204 23.7989C2.45557 23.7118 1.9627 23.6856 1.51383 23.5636C0.704105 23.3107 0.369656 24.5225 1.15298 24.7317Z" fill="#CD9A32"/>
<path d="M36.5344 31.7319C36.7544 31.7319 36.8952 31.6534 37.0976 31.6011C37.2561 31.5663 37.4233 31.5575 37.5905 31.5227C38.0042 31.4355 38.4178 31.4442 38.8491 31.4442C39.6676 31.4268 39.6676 30.1802 38.8491 30.1976C38.4178 30.2063 37.9514 30.1715 37.5289 30.2586C37.3529 30.2935 37.2121 30.3197 37.036 30.3458C36.8864 30.3632 36.684 30.4853 36.5432 30.4853C35.7158 30.4679 35.7158 31.7145 36.5344 31.7319Z" fill="#0A1859"/>
<path d="M26.5712 29.9186C25.9376 29.9186 25.3479 29.9535 24.7406 29.753C24.1069 29.5525 23.4996 29.753 22.8571 29.6571C22.5138 29.6048 22.1794 29.7443 22.0738 30.093C21.9858 30.3894 22.1794 30.8078 22.5138 30.8601C22.8923 30.9124 23.2531 30.956 23.6316 30.9212C23.9925 30.8863 24.2037 30.895 24.5645 31.0083C25.207 31.2176 25.9023 31.1565 26.5712 31.1565C27.381 31.174 27.381 29.9274 26.5712 29.9186Z" fill="#0A1859"/>
<path d="M33.1546 29.9797C32.8026 31.8365 32.2569 33.6846 32.0985 35.5763C31.9401 37.5291 32.1249 39.508 31.7464 41.4433C31.5968 42.2278 32.8202 42.5678 32.9698 41.7745C33.3483 39.8479 33.2163 37.9039 33.3395 35.9599C33.4627 34.0508 34.0172 32.1939 34.378 30.3197C34.5277 29.5264 33.3043 29.1864 33.1546 29.9797Z" fill="#CD9A32"/>
<path d="M30.2502 16.0926C30.1446 16.9818 30.2062 17.8361 30.215 18.7253C30.2238 19.6319 30.2062 20.5386 30.1446 21.4452C30.0918 22.3692 29.9774 23.2846 29.7749 24.1825C29.6781 24.6097 29.5197 25.0281 29.4317 25.4553C29.3525 25.8563 29.3965 26.266 29.4053 26.6757C29.4317 27.4777 30.6991 27.4777 30.6727 26.6757C30.6551 26.266 30.6199 25.8911 30.7343 25.4901C30.8487 25.0804 30.9631 24.6707 31.0511 24.2435C31.2448 23.3195 31.3504 22.378 31.4032 21.4452C31.456 20.5647 31.4824 19.6755 31.4736 18.795C31.4648 17.8884 31.4032 17.008 31.5088 16.0926C31.6144 15.2906 30.3382 15.2993 30.2502 16.0926Z" fill="#CD9A32"/>
<path d="M21.1848 26.8762C23.1123 26.8065 25.0398 26.8501 26.9585 26.9983C27.8827 27.068 28.8244 27.1377 29.7397 27.2859C30.6199 27.4341 31.4648 27.7131 32.3449 27.8352C33.1987 27.9485 34.07 27.9136 34.9325 27.9049C35.8567 27.8962 36.7808 27.8787 37.7049 27.87C38.1186 27.8613 38.5411 27.8787 38.9547 27.8264C39.342 27.7741 39.6852 27.6172 40.0637 27.5388C40.9526 27.3557 41.8944 27.5562 42.8009 27.4254C43.1442 27.3731 43.3202 26.9547 43.241 26.6583C43.1442 26.3009 42.8009 26.1701 42.4577 26.2224C41.6127 26.3444 40.7502 26.1614 39.8965 26.3009C39.518 26.3619 39.166 26.545 38.7875 26.5973C38.3738 26.6583 37.925 26.6234 37.5025 26.6234C36.5784 26.6321 35.6542 26.6496 34.7301 26.6583C33.8588 26.667 32.9786 26.7106 32.1161 26.545C31.2448 26.3706 30.3998 26.1265 29.5197 26.0132C28.6044 25.8911 27.6802 25.8127 26.7561 25.7429C24.899 25.6122 23.0419 25.5686 21.1848 25.6383C20.3663 25.6558 20.3663 26.9024 21.1848 26.8762Z" fill="#CD9A32"/>
<path d="M0 9.00523V7.46223L1.9715 5.79717V8.97036C1.9715 9.72879 2.34116 10.1036 3.08047 10.1036H9.31182C10.0951 10.1036 10.4912 9.72007 10.4824 8.96164V5.37001L12.4539 4.73363V9.04882C12.4539 9.94673 12.1723 10.6441 11.6002 11.1498C11.0457 11.6292 10.3064 11.8733 9.37343 11.8733H3.06287C1.9979 11.8733 1.19698 11.5769 0.668902 10.9928C0.228835 10.5221 0 9.85083 0 9.00523ZM3.82858 5.09105C3.82858 4.81209 3.9342 4.568 4.14543 4.35006C4.34786 4.14956 4.5943 4.04494 4.88474 4.04494C5.15759 4.04494 5.40402 4.14956 5.61525 4.35006C5.82649 4.55928 5.9321 4.81209 5.9321 5.09105C5.9321 5.37001 5.82649 5.6141 5.61525 5.82333C5.40402 6.03255 5.15759 6.13716 4.88474 6.13716C4.6119 6.13716 4.36547 6.03255 4.14543 5.83204C3.9342 5.6141 3.82858 5.37001 3.82858 5.09105ZM6.5834 5.09105C6.5834 4.81209 6.68902 4.568 6.90025 4.35006C7.10268 4.14956 7.34912 4.04494 7.63076 4.04494C7.9036 4.04494 8.15004 4.14956 8.37008 4.35006C8.58131 4.55928 8.68692 4.81209 8.68692 5.09105C8.68692 5.37001 8.58131 5.6141 8.37008 5.82333C8.15884 6.03255 7.9124 6.13716 7.63076 6.13716C7.35792 6.13716 7.11148 6.03255 6.90025 5.83204C6.68902 5.6141 6.5834 5.37001 6.5834 5.09105Z" fill="#97D360"/>
<path d="M14.2494 9.72879V2.59783L16.2297 1.96145V9.42368C16.2297 9.67649 16.2913 9.85955 16.4145 9.97288C16.5113 10.0601 16.6697 10.1036 16.881 10.1036H18.2892V11.8733H16.4585C15.7104 11.8733 15.1471 11.6641 14.7598 11.2369C14.4166 10.8621 14.2494 10.3565 14.2494 9.72879Z" fill="#97D360"/>
<path d="M17.9107 11.882V10.1124H20.2695V6.93917L22.241 6.30279V10.1124H24.4677V6.34638L26.4392 5.71V10.1124H28.71V5.84076L30.6815 5.20438V10.1124H32.9962V11.882H17.9107Z" fill="#97D360"/>
<path d="M32.6266 11.882V10.1124H34.3252V6.48586L36.2967 5.84948V10.1124H38.5235V5.89307L40.495 5.25668V10.1036H41.6567C42.4049 10.1036 42.7745 9.73751 42.7657 9.00523V5.37001L44.7548 4.73363L44.7284 9.11856C44.7284 9.91186 44.482 10.557 43.9803 11.0539C43.4258 11.6031 42.6777 11.8733 41.7183 11.8733H32.6266V11.882Z" fill="#97D360"/>
<path d="M46.5415 8.3427C46.5415 7.56684 46.7175 6.86943 47.0784 6.25048C47.36 5.7623 47.7385 5.37873 48.2049 5.1172C48.689 4.83824 49.2523 4.69004 49.886 4.69004C51.1622 4.69004 52.0687 5.15207 52.6232 6.08485C53.0017 6.73867 53.1865 7.60171 53.1865 8.68268V10.1036H54.85V11.8733H53.1425C53.0545 12.4225 52.9225 12.841 52.7552 13.1286C52.4824 13.643 52.0951 14.0353 51.6023 14.3229C51.0566 14.6368 50.4581 14.785 49.7804 14.785C49.3315 14.785 48.8474 14.7152 48.3106 14.5757C48.0377 14.4973 47.7825 14.4014 47.5536 14.2881L46.6647 12.3005C47.4832 12.8148 48.3722 13.0676 49.3403 13.0763C49.9036 13.0763 50.3525 12.9281 50.6781 12.6317C50.8894 12.4574 51.0566 12.2046 51.1798 11.8646H49.8684C48.9355 11.8646 48.1609 11.5595 47.5536 10.958C46.8759 10.3041 46.5415 9.43239 46.5415 8.3427ZM47.1488 3.68752L47.9145 2.38861H48.5394C48.557 1.90043 48.6186 1.51685 48.7066 1.25533C48.909 0.714839 49.2347 0.357419 49.6836 0.165633C49.93 0.0523048 50.194 0 50.4757 0C51.0478 0 51.5671 0.217938 52.0335 0.662533L51.1446 1.60403C50.951 1.40353 50.7397 1.29892 50.5021 1.29892C50.3613 1.29892 50.2293 1.36866 50.106 1.49942C49.974 1.6389 49.9036 1.81325 49.9036 2.00504V2.39733H52.0687V3.69624H47.1488V3.68752ZM48.5042 8.36013C48.5042 8.99652 48.6714 9.47598 49.0147 9.78981C49.2523 9.99903 49.5339 10.1036 49.8684 10.1036H51.2326V8.72627C51.2326 8.39501 51.2238 8.16835 51.215 8.0463C51.1622 7.53197 51.0038 7.12224 50.7221 6.81713C50.4845 6.54688 50.2028 6.4074 49.8684 6.4074C49.4811 6.4074 49.1643 6.58175 48.909 6.93046C48.6362 7.32275 48.5042 7.79349 48.5042 8.36013Z" fill="#97D360"/>
<path d="M54.4715 11.882V10.1124H55.4661C56.2494 10.1124 56.6454 9.72007 56.6366 8.92677V8.43859C56.6366 7.19198 56.9711 6.25049 57.64 5.62282C58.1945 5.1172 58.925 4.87311 59.8403 4.87311C60.8613 4.87311 61.6534 5.18694 62.2079 5.82333C62.736 6.44227 63 7.29659 63 8.40372C63 9.66777 62.6655 10.6093 61.9966 11.2282C61.451 11.7338 60.738 11.9779 59.8579 11.9779C59.0658 11.9779 58.3529 11.7513 57.728 11.298C57.4552 11.5333 57.1647 11.6902 56.8567 11.7687C56.5926 11.8384 56.2758 11.8733 55.8973 11.8733H54.4715V11.882ZM58.6609 8.42987C58.6609 8.97036 58.7489 9.38881 58.9162 9.6852C59.1186 10.0339 59.4267 10.1995 59.8491 10.1995C60.3244 10.1995 60.6588 9.96416 60.8525 9.50213C60.9669 9.22317 61.0197 8.86575 61.0197 8.42987C61.0197 7.88067 60.9317 7.46223 60.7557 7.15711C60.5532 6.80841 60.2452 6.64277 59.8403 6.64277C59.4267 6.64277 59.1098 6.81713 58.9074 7.17455C58.749 7.47966 58.6609 7.8981 58.6609 8.42987Z" fill="#97D360"/>
</svg>
