<svg width="16" height="17" viewBox="0 0 16 17" fill="none" xmlns="http://www.w3.org/2000/svg">
<path d="M2.66667 9.1967H4.66667V10.53H2.66667V9.1967ZM6 10.53H8V9.1967H6V10.53ZM2.66667 13.1967H4.66667V11.8634H2.66667V13.1967ZM6 13.1967H8V11.8634H6V13.1967ZM2.66667 5.1967H4.66667V3.86336H2.66667V5.1967ZM6 5.1967H8V3.86336H6V5.1967ZM2.66667 7.86336H4.66667V6.53003H2.66667V7.86336ZM6 7.86336H8V6.53003H6V7.86336ZM16 5.86336V16.53H0V2.53003C0 1.9996 0.210714 1.49089 0.585786 1.11582C0.960859 0.740743 1.46957 0.530029 2 0.530029L8.66667 0.530029C9.1971 0.530029 9.70581 0.740743 10.0809 1.11582C10.456 1.49089 10.6667 1.9996 10.6667 2.53003V3.86336H14C14.5304 3.86336 15.0391 4.07408 15.4142 4.44915C15.7893 4.82422 16 5.33293 16 5.86336ZM9.33333 2.53003C9.33333 2.35322 9.2631 2.18365 9.13807 2.05862C9.01305 1.9336 8.84348 1.86336 8.66667 1.86336H2C1.82319 1.86336 1.65362 1.9336 1.5286 2.05862C1.40357 2.18365 1.33333 2.35322 1.33333 2.53003V15.1967H9.33333V2.53003ZM14.6667 5.86336C14.6667 5.68655 14.5964 5.51698 14.4714 5.39196C14.3464 5.26693 14.1768 5.1967 14 5.1967H10.6667V15.1967H14.6667V5.86336ZM12 10.53H13.3333V9.1967H12V10.53ZM12 13.1967H13.3333V11.8634H12V13.1967ZM12 7.86336H13.3333V6.53003H12V7.86336Z" fill="#07194B"/>
</svg>
