<svg width="19" height="19" viewBox="0 0 19 19" fill="none" xmlns="http://www.w3.org/2000/svg">
<path d="M12.1109 0.530029C11.0135 0.530696 9.93209 0.782794 8.95644 1.26539C7.9808 1.74799 7.13908 2.44716 6.50117 3.30487C5.86327 4.16257 5.44758 5.15406 5.28862 6.19701C5.12966 7.23996 5.23201 8.30429 5.58718 9.30163L0.421205 14.2644C0.32171 14.3598 0.265749 14.4893 0.265625 14.6244V18.0206C0.265625 18.1557 0.321505 18.2853 0.420972 18.3808C0.520439 18.4764 0.655345 18.53 0.796012 18.53H4.33193C4.47259 18.53 4.6075 18.4764 4.70697 18.3808C4.80643 18.2853 4.86231 18.1557 4.86231 18.0206V16.4923H6.45348C6.59414 16.4923 6.72905 16.4386 6.82852 16.3431C6.92798 16.2475 6.98386 16.118 6.98386 15.9829V14.4546H8.57502C8.71564 14.4544 8.85046 14.4007 8.94983 14.3051L9.87359 13.4187C10.8207 13.7299 11.8269 13.8394 12.8225 13.7394C13.818 13.6395 14.779 13.3325 15.6386 12.8399C16.4982 12.3473 17.2358 11.6808 17.8001 10.8867C18.3645 10.0927 18.7421 9.19018 18.9068 8.24184C19.0714 7.29351 19.0191 6.32211 18.7534 5.39516C18.4878 4.46821 18.0152 3.60792 17.3685 2.87407C16.7218 2.14022 15.9166 1.55041 15.0086 1.14562C14.1007 0.740833 13.1119 0.53077 12.1109 0.530029ZM12.1109 12.7564C11.3714 12.7577 10.6383 12.6231 9.95138 12.3599C9.85368 12.3191 9.74542 12.3074 9.64073 12.3265C9.53603 12.3456 9.43974 12.3945 9.36442 12.4669L8.35491 13.4357H6.45348C6.31281 13.4357 6.1779 13.4894 6.07844 13.5849C5.97897 13.6804 5.92309 13.81 5.92309 13.9451V15.4734H4.33193C4.19126 15.4734 4.05635 15.5271 3.95689 15.6226C3.85742 15.7182 3.80154 15.8477 3.80154 15.9829V17.5112H1.3264V14.8358L6.57812 9.79069C6.6535 9.71834 6.70444 9.62586 6.72431 9.5253C6.74418 9.42474 6.73205 9.32076 6.6895 9.22692C6.22747 8.11317 6.14951 6.88646 6.46707 5.72701C6.78463 4.56755 7.48097 3.53649 8.45378 2.78529C9.42659 2.03409 10.6246 1.60237 11.8718 1.55355C13.1189 1.50472 14.3495 1.84137 15.3828 2.51404C16.416 3.18671 17.1974 4.15992 17.6121 5.29071C18.0269 6.4215 18.0531 7.65023 17.687 8.7964C17.3209 9.94256 16.5817 10.9457 15.578 11.6585C14.5744 12.3713 13.3592 12.7561 12.1109 12.7564ZM14.7629 5.45456C14.7629 5.62249 14.711 5.78664 14.6139 5.92627C14.5168 6.0659 14.3787 6.17472 14.2172 6.23898C14.0557 6.30325 13.8779 6.32006 13.7064 6.2873C13.535 6.25454 13.3775 6.17367 13.2538 6.05493C13.1302 5.93619 13.046 5.7849 13.0119 5.6202C12.9778 5.4555 12.9953 5.28478 13.0622 5.12964C13.1291 4.97449 13.2424 4.84189 13.3878 4.74859C13.5332 4.6553 13.7041 4.6055 13.8789 4.6055C14.1133 4.6055 14.3382 4.69495 14.504 4.85418C14.6697 5.01341 14.7629 5.22937 14.7629 5.45456Z" fill="#07194B"/>
</svg>
