<svg width="30" height="30" viewBox="0 0 30 30" fill="none" xmlns="http://www.w3.org/2000/svg">
<rect width="30" height="30" rx="15" fill="#EEFFF4"/>
<path d="M19.1774 16.3204L20.9679 18.1109C21.2222 18.3652 21.2222 18.7776 20.9679 19.032C19.5927 20.4071 17.4157 20.5618 15.8599 19.395L15.0686 18.8016C13.6017 17.7013 12.2985 16.3982 11.1983 14.9312L10.6049 14.14C9.43801 12.5842 9.59273 10.4071 10.9679 9.03196C11.2222 8.77761 11.6346 8.77761 11.889 9.03196L13.6795 10.8225C14.0142 11.1572 14.0142 11.6999 13.6795 12.0346L13.0511 12.663C12.9352 12.7789 12.9065 12.956 12.9798 13.1026C13.8274 14.7979 15.202 16.1725 16.8972 17.0201C17.0438 17.0934 17.2209 17.0647 17.3368 16.9487L17.9652 16.3204C18.2999 15.9856 18.8426 15.9856 19.1774 16.3204Z" fill="#22D265" stroke="#22D265" stroke-width="0.857143"/>
</svg>
