<svg width="20" height="18" viewBox="0 0 20 18" fill="none" xmlns="http://www.w3.org/2000/svg">
<path d="M1.62321 12.3335L6.25095 10.3892C6.46063 10.305 6.68941 10.2711 6.91657 10.2907C7.14373 10.3102 7.36209 10.3826 7.5519 10.5012C7.57116 10.5128 7.58949 10.5257 7.60676 10.5398L10.0254 12.4685C10.0505 12.4813 10.0785 12.4885 10.107 12.4894C10.1356 12.4904 10.164 12.4851 10.19 12.474C11.7447 11.7705 13.3552 10.2698 14.1085 8.83251C14.1211 8.8085 14.1276 8.78211 14.1276 8.75537C14.1276 8.72863 14.1211 8.70224 14.1085 8.67822L12.0445 6.38222C12.0296 6.36523 12.0159 6.34745 12.0033 6.32895C11.8785 6.15033 11.8031 5.94538 11.784 5.73261C11.7648 5.51984 11.8025 5.30594 11.8936 5.11024L13.9528 0.779058C14.0697 0.523383 14.2719 0.310161 14.5291 0.171393C14.7863 0.0326249 15.0845 -0.0242032 15.3791 0.00943748C16.6592 0.167216 17.8343 0.756591 18.6847 1.66743C19.5351 2.57826 20.0027 3.74823 20 4.9587C20 12.1498 13.7598 18 6.08932 18C4.79821 18.0023 3.55036 17.5639 2.57885 16.7667C1.60734 15.9695 0.978613 14.868 0.810118 13.6679C0.774309 13.393 0.834101 13.1147 0.9806 12.8743C1.1271 12.6338 1.35248 12.4442 1.62321 12.3335ZM6.08932 16.8979C13.1113 16.8979 18.8244 11.5418 18.8244 4.9587C18.8277 4.01636 18.4649 3.10513 17.8038 2.39527C17.1427 1.68541 16.2286 1.22548 15.2322 1.10142H15.2096C15.1701 1.10211 15.1318 1.11396 15.0996 1.13543C15.0675 1.1569 15.043 1.18698 15.0294 1.22173L12.9624 5.54831C12.9506 5.57237 12.9445 5.59853 12.9445 5.625C12.9445 5.65147 12.9506 5.67763 12.9624 5.70169L15.0304 8.0032C15.0458 8.01963 15.0599 8.03713 15.0725 8.05555C15.2019 8.24075 15.2781 8.45414 15.2937 8.67505C15.3093 8.89597 15.2638 9.11692 15.1616 9.31651C14.2927 10.9843 12.5 12.6521 10.7014 13.4668C10.4872 13.562 10.2504 13.6037 10.014 13.5876C9.77759 13.5715 9.54966 13.4982 9.35245 13.3749C9.33383 13.363 9.31522 13.3501 9.29759 13.3364L6.87987 11.4077C6.856 11.3957 6.82963 11.3886 6.80257 11.387C6.77552 11.3855 6.74842 11.3894 6.72313 11.3985L2.09441 13.3428C2.0566 13.3579 2.02481 13.3837 2.00354 13.4167C1.98226 13.4497 1.97258 13.4881 1.97587 13.5265C2.10751 14.461 2.59764 15.3187 3.35466 15.9392C4.11168 16.5596 5.08379 16.9004 6.08932 16.8979Z" fill="#07194B"/>
</svg>
