<svg width="21" height="18" viewBox="0 0 21 18" fill="none" xmlns="http://www.w3.org/2000/svg">
<path d="M1.72281 12.3335L6.35056 10.3892C6.56024 10.305 6.78902 10.2711 7.01618 10.2907C7.24334 10.3102 7.4617 10.3826 7.6515 10.5012C7.67077 10.5128 7.6891 10.5257 7.70636 10.5398L10.1251 12.4685C10.1502 12.4813 10.1781 12.4885 10.2067 12.4894C10.2352 12.4904 10.2636 12.4851 10.2896 12.474C11.8443 11.7705 13.4548 10.2698 14.2081 8.83251C14.2207 8.8085 14.2272 8.78211 14.2272 8.75537C14.2272 8.72863 14.2207 8.70224 14.2081 8.67822L12.1441 6.38222C12.1293 6.36523 12.1155 6.34745 12.1029 6.32895C11.9781 6.15033 11.9028 5.94538 11.8836 5.73261C11.8644 5.51984 11.9021 5.30594 11.9932 5.11024L14.0524 0.779058C14.1693 0.523383 14.3715 0.310161 14.6287 0.171393C14.8859 0.0326249 15.1842 -0.0242032 15.4787 0.00943748C16.7589 0.167216 17.9339 0.756591 18.7843 1.66743C19.6347 2.57826 20.1023 3.74823 20.0996 4.9587C20.0996 12.1498 13.8594 18 6.18892 18C4.89782 18.0023 3.64997 17.5639 2.67846 16.7667C1.70695 15.9695 1.07822 14.868 0.909727 13.6679C0.873919 13.393 0.93371 13.1147 1.08021 12.8743C1.22671 12.6338 1.45209 12.4442 1.72281 12.3335ZM6.18892 16.8979C13.2109 16.8979 18.924 11.5418 18.924 4.9587C18.9273 4.01636 18.5645 3.10513 17.9034 2.39527C17.2423 1.68541 16.3282 1.22548 15.3318 1.10142H15.3092C15.2698 1.10211 15.2314 1.11396 15.1993 1.13543C15.1671 1.1569 15.1426 1.18698 15.129 1.22173L13.062 5.54831C13.0502 5.57237 13.0441 5.59853 13.0441 5.625C13.0441 5.65147 13.0502 5.67763 13.062 5.70169L15.13 8.0032C15.1454 8.01963 15.1595 8.03713 15.1721 8.05555C15.3015 8.24075 15.3777 8.45414 15.3933 8.67505C15.4089 8.89597 15.3634 9.11692 15.2612 9.31651C14.3923 10.9843 12.5996 12.6521 10.801 13.4668C10.5869 13.562 10.35 13.6037 10.1136 13.5876C9.8772 13.5715 9.64927 13.4982 9.45206 13.3749C9.43344 13.363 9.41483 13.3501 9.3972 13.3364L6.97948 11.4077C6.95561 11.3957 6.92924 11.3886 6.90218 11.387C6.87513 11.3855 6.84803 11.3894 6.82274 11.3985L2.19402 13.3428C2.15621 13.3579 2.12442 13.3837 2.10315 13.4167C2.08187 13.4497 2.07219 13.4881 2.07548 13.5265C2.20712 14.461 2.69725 15.3187 3.45427 15.9392C4.21129 16.5596 5.1834 16.9004 6.18892 16.8979Z" fill="white"/>
</svg>
