<svg width="14" height="18" viewBox="0 0 14 18" fill="none" xmlns="http://www.w3.org/2000/svg">
<mask id="path-1-inside-1_3_42" fill="white">
<path d="M14 4.5C14 2.61438 14 1.67157 13.4142 1.08579C12.8284 0.5 11.8856 0.5 10 0.5H4C2.11438 0.5 1.17157 0.5 0.585787 1.08579C0 1.67157 0 2.61438 0 4.5V13.5C0 15.3856 0 16.3284 0.585787 16.9142C1.17157 17.5 2.11438 17.5 4 17.5H10C11.8856 17.5 12.8284 17.5 13.4142 16.9142C14 16.3284 14 15.3856 14 13.5V4.5Z"/>
</mask>
<path d="M10 5C10.2761 5 10.5 5.22386 10.5 5.5C10.5 5.77614 10.2761 6 10 6V5ZM4 6C3.72386 6 3.5 5.77614 3.5 5.5C3.5 5.22386 3.72386 5 4 5V6ZM10 9C10.2761 9 10.5 9.22386 10.5 9.5C10.5 9.77614 10.2761 10 10 10V9ZM4 10C3.72386 10 3.5 9.77614 3.5 9.5C3.5 9.22386 3.72386 9 4 9V10ZM10 13C10.2761 13 10.5 13.2239 10.5 13.5C10.5 13.7761 10.2761 14 10 14V13ZM6 14C5.72386 14 5.5 13.7761 5.5 13.5C5.5 13.2239 5.72386 13 6 13V14ZM10 6H4V5H10V6ZM10 10H4V9H10V10ZM10 14H6V13H10V14ZM10 1.5H4V-0.5H10V1.5ZM1 4.5V13.5H-1V4.5H1ZM4 16.5H10V18.5H4V16.5ZM13 13.5V4.5H15V13.5H13ZM10 16.5C10.9711 16.5 11.5988 16.4979 12.0613 16.4357C12.495 16.3774 12.631 16.2832 12.7071 16.2071L14.1213 17.6213C13.6117 18.131 12.9833 18.3297 12.3278 18.4179C11.701 18.5021 10.9145 18.5 10 18.5V16.5ZM15 13.5C15 14.4145 15.0021 15.201 14.9179 15.8278C14.8297 16.4833 14.631 17.1117 14.1213 17.6213L12.7071 16.2071C12.7832 16.131 12.8774 15.995 12.9357 15.5613C12.9979 15.0988 13 14.4711 13 13.5H15ZM1 13.5C1 14.4711 1.00212 15.0988 1.06431 15.5613C1.12262 15.995 1.21677 16.131 1.29289 16.2071L-0.12132 17.6213C-0.630982 17.1117 -0.829727 16.4833 -0.917859 15.8278C-1.00212 15.201 -1 14.4145 -1 13.5H1ZM4 18.5C3.08546 18.5 2.29896 18.5021 1.67221 18.4179C1.01669 18.3297 0.388342 18.131 -0.12132 17.6213L1.29289 16.2071C1.36902 16.2832 1.50496 16.3774 1.9387 16.4357C2.40121 16.4979 3.02892 16.5 4 16.5V18.5ZM4 1.5C3.02892 1.5 2.40121 1.50212 1.9387 1.56431C1.50496 1.62262 1.36902 1.71677 1.29289 1.79289L-0.12132 0.37868C0.388342 -0.130982 1.01669 -0.329728 1.67221 -0.417859C2.29896 -0.502124 3.08546 -0.5 4 -0.5V1.5ZM-1 4.5C-1 3.58546 -1.00212 2.79896 -0.917859 2.17221C-0.829727 1.51669 -0.630982 0.888342 -0.12132 0.37868L1.29289 1.79289C1.21677 1.86902 1.12262 2.00496 1.06431 2.4387C1.00212 2.90121 1 3.52892 1 4.5H-1ZM10 -0.5C10.9145 -0.5 11.701 -0.502124 12.3278 -0.417859C12.9833 -0.329728 13.6117 -0.130983 14.1213 0.37868L12.7071 1.79289C12.631 1.71677 12.495 1.62262 12.0613 1.56431C11.5988 1.50212 10.9711 1.5 10 1.5V-0.5ZM13 4.5C13 3.52892 12.9979 2.90121 12.9357 2.4387C12.8774 2.00496 12.7832 1.86902 12.7071 1.79289L14.1213 0.37868C14.631 0.888342 14.8297 1.51669 14.9179 2.17221C15.0021 2.79896 15 3.58546 15 4.5H13Z" fill="#CD9A32" mask="url(#path-1-inside-1_3_42)"/>
</svg>
