<svg width="30" height="20" viewBox="0 0 30 20" fill="none" xmlns="http://www.w3.org/2000/svg">
<path d="M29.4348 9.49117C29.3923 9.39367 28.3523 7.08742 26.0298 4.76492C23.8748 2.61242 20.1723 0.0449219 14.7498 0.0449219C9.32732 0.0449219 5.62482 2.61242 3.46982 4.76492C1.14732 7.08742 0.107318 9.38992 0.0648175 9.49117C0.022083 9.58718 0 9.69109 0 9.79617C0 9.90126 0.022083 10.0052 0.0648175 10.1012C0.107318 10.1974 1.14732 12.5037 3.46982 14.8262C5.62482 16.9787 9.32732 19.5449 14.7498 19.5449C20.1723 19.5449 23.8748 16.9787 26.0298 14.8262C28.3523 12.5037 29.3923 10.2012 29.4348 10.1012C29.4776 10.0052 29.4996 9.90126 29.4996 9.79617C29.4996 9.69109 29.4776 9.58718 29.4348 9.49117ZM14.7498 18.0449C10.8273 18.0449 7.40232 16.6174 4.56857 13.8037C3.38066 12.6231 2.37544 11.272 1.58607 9.79492C2.37522 8.31808 3.38047 6.96735 4.56857 5.78742C7.40232 2.97242 10.8273 1.54492 14.7498 1.54492C18.6723 1.54492 22.0973 2.97242 24.9311 5.78742C26.1192 6.96735 27.1244 8.31808 27.9136 9.79492C27.1173 11.3212 23.1248 18.0449 14.7498 18.0449ZM14.7498 4.04492C13.6126 4.04492 12.5009 4.38215 11.5553 5.01397C10.6097 5.64579 9.87271 6.54382 9.43751 7.59449C9.00231 8.64517 8.88844 9.8013 9.1103 10.9167C9.33217 12.0321 9.8798 13.0566 10.684 13.8608C11.4881 14.6649 12.5127 15.2126 13.628 15.4344C14.7434 15.6563 15.8996 15.5424 16.9502 15.1072C18.0009 14.672 18.8989 13.935 19.5308 12.9895C20.1626 12.0439 20.4998 10.9322 20.4998 9.79492C20.4978 8.27054 19.8914 6.80915 18.8135 5.73125C17.7356 4.65335 16.2742 4.04691 14.7498 4.04492ZM14.7498 14.0449C13.9092 14.0449 13.0876 13.7957 12.3886 13.3287C11.6897 12.8617 11.145 12.1979 10.8233 11.4213C10.5017 10.6447 10.4175 9.79021 10.5815 8.96579C10.7455 8.14137 11.1502 7.38409 11.7446 6.78972C12.339 6.19534 13.0963 5.79057 13.9207 5.62658C14.7451 5.4626 15.5996 5.54676 16.3762 5.86843C17.1528 6.19011 17.8166 6.73484 18.2836 7.43375C18.7506 8.13266 18.9998 8.95435 18.9998 9.79492C18.9998 10.9221 18.552 12.0031 17.755 12.8001C16.958 13.5972 15.877 14.0449 14.7498 14.0449Z" fill="#889EBD"/>
</svg>
