<svg width="19" height="19" viewBox="0 0 19 19" fill="none" xmlns="http://www.w3.org/2000/svg">
<path d="M7.51837 4.1694C8.30498 2.2084 8.69828 1.22791 9.37461 1.22791C10.0509 1.22791 10.4442 2.20841 11.2308 4.1694L11.2675 4.26072C11.7119 5.36859 11.9341 5.92252 12.3869 6.25921C12.8398 6.5959 13.4342 6.64914 14.6231 6.75561L14.8381 6.77486C16.7839 6.94913 17.7568 7.03626 17.965 7.65524C18.1731 8.27422 17.4506 8.93157 16.0056 10.2463L15.5233 10.685C14.7918 11.3505 14.426 11.6833 14.2556 12.1194C14.2238 12.2008 14.1973 12.2841 14.1764 12.369C14.0644 12.8236 14.1715 13.3063 14.3857 14.2718L14.4524 14.5723C14.846 16.3467 15.0429 17.2338 14.6992 17.6165C14.5708 17.7595 14.4039 17.8624 14.2184 17.913C13.7222 18.0484 13.0178 17.4744 11.6088 16.3263C10.6836 15.5724 10.2211 15.1955 9.68995 15.1107C9.48104 15.0773 9.26817 15.0773 9.05926 15.1107C8.52816 15.1955 8.06557 15.5724 7.1404 16.3263C5.73145 17.4744 5.02697 18.0484 4.53077 17.913C4.34535 17.8624 4.17844 17.7595 4.05002 17.6165C3.70634 17.2338 3.90318 16.3467 4.29685 14.5723L4.36353 14.2718C4.57774 13.3063 4.68484 12.8236 4.57279 12.369C4.55188 12.2841 4.52545 12.2008 4.49365 12.1194C4.32317 11.6833 3.95742 11.3505 3.22591 10.685L2.74363 10.2463C1.29859 8.93157 0.576066 8.27422 0.784244 7.65524C0.992423 7.03626 1.96533 6.94913 3.91114 6.77486L4.12608 6.75561C5.315 6.64914 5.90945 6.5959 6.3623 6.25921C6.81515 5.92252 7.03735 5.36859 7.48174 4.26072L7.51837 4.1694Z" stroke="#CD9A32"/>
</svg>
