<svg width="20" height="13" viewBox="0 0 20 13" fill="none" xmlns="http://www.w3.org/2000/svg">
<path d="M3 3.5H6M14 9.5H17M5 12.5H15C16.8856 12.5 17.8284 12.5 18.4142 11.9142C19 11.3284 19 10.3856 19 8.5V4.5C19 2.61438 19 1.67157 18.4142 1.08579C17.8284 0.5 16.8856 0.5 15 0.5H5C3.11438 0.5 2.17157 0.5 1.58579 1.08579C1 1.67157 1 2.61438 1 4.5V8.5C1 10.3856 1 11.3284 1.58579 11.9142C2.17157 12.5 3.11438 12.5 5 12.5ZM12 6.5C12 7.60457 11.1046 8.5 10 8.5C8.89543 8.5 8 7.60457 8 6.5C8 5.39543 8.89543 4.5 10 4.5C11.1046 4.5 12 5.39543 12 6.5Z" stroke="#222222" stroke-linecap="round"/>
</svg>
