<svg width="11" height="14" viewBox="0 0 11 14" fill="none" xmlns="http://www.w3.org/2000/svg">
<path d="M3.44187 6.85294C3.16572 6.85294 2.94187 7.0768 2.94187 7.35294C2.94187 7.62908 3.16572 7.85294 3.44187 7.85294L3.44187 6.85294ZM8.38304 7.85294C8.65918 7.85294 8.88304 7.62908 8.88304 7.35294C8.88304 7.0768 8.65918 6.85294 8.38304 6.85294V7.85294ZM3.44187 8.97059C3.16572 8.97059 2.94187 9.19445 2.94187 9.47059C2.94187 9.74673 3.16572 9.97059 3.44187 9.97059V8.97059ZM6.2654 9.97059C6.54154 9.97059 6.7654 9.74673 6.7654 9.47059C6.7654 9.19445 6.54154 8.97059 6.2654 8.97059V9.97059ZM10.3447 4.41476L10.771 4.15351L10.3447 4.41476ZM10.4714 4.72081L10.9576 4.60409L10.4714 4.72081ZM1.90235 12.8846L1.67535 13.3301L1.90235 12.8846ZM1.43962 12.4219L0.99412 12.6489L1.43962 12.4219ZM9.92256 12.8846L10.1496 13.3301L9.92256 12.8846ZM10.3853 12.4219L10.8308 12.6489L10.3853 12.4219ZM6.77988 1.02926L6.8966 0.54307V0.54307L6.77988 1.02926ZM7.08593 1.15603L7.34718 0.729708V0.729708L7.08593 1.15603ZM1.90235 1.1154L1.67535 0.669902L1.90235 1.1154ZM1.43962 1.57813L0.99412 1.35113L1.43962 1.57813ZM6.3808 4.65717L5.9353 4.88416V4.88416L6.3808 4.65717ZM6.84352 5.11989L7.07052 4.67439L7.07052 4.67439L6.84352 5.11989ZM3.44187 7.85294L8.38304 7.85294V6.85294L3.44187 6.85294L3.44187 7.85294ZM3.44187 9.97059H6.2654V8.97059H3.44187V9.97059ZM3.01834 1.5H6.26955V0.5H3.01834V1.5ZM8.80657 12.5H3.01834V13.5H8.80657V12.5ZM1.82422 11.3059V2.69412H0.824219V11.3059H1.82422ZM7.11392 1.84975L9.65094 4.38677L10.358 3.67966L7.82103 1.14264L7.11392 1.84975ZM10.0007 5.23114V11.3059H11.0007V5.23114H10.0007ZM9.65094 4.38677C9.85089 4.58672 9.89097 4.63135 9.91834 4.67601L10.771 4.15351C10.6674 3.98446 10.5243 3.84596 10.358 3.67966L9.65094 4.38677ZM11.0007 5.23114C11.0007 4.99596 11.0039 4.79688 10.9576 4.60409L9.98525 4.83754C9.99748 4.88847 10.0007 4.94836 10.0007 5.23114H11.0007ZM9.91834 4.67601C9.94898 4.72601 9.97156 4.78052 9.98525 4.83754L10.9576 4.60409C10.9194 4.44503 10.8564 4.29298 10.771 4.15351L9.91834 4.67601ZM3.01834 12.5C2.71359 12.5 2.5151 12.4996 2.36362 12.4872C2.21798 12.4753 2.16036 12.4549 2.12934 12.4391L1.67535 13.3301C1.87083 13.4297 2.07471 13.467 2.28219 13.4839C2.48383 13.5004 2.73009 13.5 3.01834 13.5V12.5ZM0.824219 11.3059C0.824219 11.5941 0.82383 11.8404 0.840305 12.042C0.857257 12.2495 0.894518 12.4534 0.99412 12.6489L1.88513 12.1949C1.86932 12.1639 1.84888 12.1062 1.83698 11.9606C1.82461 11.8091 1.82422 11.6106 1.82422 11.3059H0.824219ZM2.12934 12.4391C2.02419 12.3855 1.9387 12.3 1.88513 12.1949L0.99412 12.6489C1.14357 12.9422 1.38204 13.1806 1.67535 13.3301L2.12934 12.4391ZM8.80657 13.5C9.09482 13.5 9.34108 13.5004 9.54272 13.4839C9.7502 13.467 9.95408 13.4297 10.1496 13.3301L9.69557 12.4391C9.66455 12.4549 9.60693 12.4753 9.46129 12.4872C9.30981 12.4996 9.11132 12.5 8.80657 12.5V13.5ZM10.0007 11.3059C10.0007 11.6106 10.0003 11.8091 9.98792 11.9606C9.97603 12.1062 9.95558 12.1639 9.93978 12.1949L10.8308 12.6489C10.9304 12.4534 10.9677 12.2495 10.9846 12.042C11.0011 11.8404 11.0007 11.5941 11.0007 11.3059H10.0007ZM10.1496 13.3301C10.4429 13.1806 10.6813 12.9422 10.8308 12.6489L9.93978 12.1949C9.88621 12.3 9.80072 12.3855 9.69557 12.4391L10.1496 13.3301ZM6.26955 1.5C6.55233 1.5 6.61222 1.50321 6.66315 1.51544L6.8966 0.54307C6.70381 0.496787 6.50473 0.5 6.26955 0.5V1.5ZM7.82103 1.14264C7.65473 0.976346 7.51623 0.833301 7.34718 0.729708L6.82468 1.58235C6.86934 1.60971 6.91397 1.64979 7.11392 1.84975L7.82103 1.14264ZM6.66315 1.51544C6.72017 1.52913 6.77468 1.55171 6.82468 1.58235L7.34718 0.729708C7.20771 0.644239 7.05565 0.581256 6.8966 0.54307L6.66315 1.51544ZM3.01834 0.5C2.73009 0.5 2.48383 0.499611 2.28219 0.516086C2.07471 0.533038 1.87083 0.570299 1.67535 0.669902L2.12934 1.56091C2.16036 1.54511 2.21798 1.52466 2.36362 1.51277C2.5151 1.50039 2.71359 1.5 3.01834 1.5V0.5ZM1.82422 2.69412C1.82422 2.38937 1.82461 2.19088 1.83698 2.0394C1.84888 1.89376 1.86932 1.83614 1.88513 1.80512L0.99412 1.35113C0.894518 1.54661 0.857257 1.75049 0.840305 1.95797C0.82383 2.15961 0.824219 2.40587 0.824219 2.69412H1.82422ZM1.67535 0.669902C1.38204 0.819351 1.14357 1.05782 0.99412 1.35113L1.88513 1.80512C1.9387 1.69997 2.02419 1.61448 2.12934 1.56091L1.67535 0.669902ZM5.7654 1V3.54118H6.7654V1H5.7654ZM7.95951 5.73529H10.5007V4.73529H7.95951V5.73529ZM5.7654 3.54118C5.7654 3.82942 5.76501 4.07568 5.78148 4.27733C5.79843 4.48481 5.83569 4.68868 5.9353 4.88416L6.8263 4.43017C6.8105 4.39916 6.79006 4.34153 6.77816 4.19589C6.76578 4.04442 6.7654 3.84593 6.7654 3.54118H5.7654ZM7.95951 4.73529C7.65476 4.73529 7.45627 4.73491 7.3048 4.72253C7.15915 4.71063 7.10153 4.69019 7.07052 4.67439L6.61653 5.56539C6.81201 5.665 7.01588 5.70226 7.22336 5.71921C7.42501 5.73568 7.67126 5.73529 7.95951 5.73529V4.73529ZM5.9353 4.88416C6.08475 5.17747 6.32322 5.41594 6.61653 5.56539L7.07052 4.67439C6.96537 4.62081 6.87988 4.53532 6.8263 4.43017L5.9353 4.88416Z" fill="#CD9A32"/>
</svg>
