<svg width="24" height="24" viewBox="0 0 24 24" fill="none" xmlns="http://www.w3.org/2000/svg">
<path fill-rule="evenodd" clip-rule="evenodd" d="M4.77435 10.9993L1.49817 4.44103C0.38965 2.222 -0.16461 1.11249 0.345226 0.603019C0.855063 0.0935478 1.96418 0.648604 4.18241 1.75872L21.0827 10.2164C22.6435 10.9975 23.4239 11.3881 23.4237 12.0061C23.4235 12.6242 22.6428 13.0142 21.0814 13.7941L4.17507 22.2397C1.95604 23.3483 0.846528 23.9025 0.337058 23.3927C-0.172413 22.8829 0.382643 21.7737 1.49275 19.5555L4.7738 12.9993L13.8896 13.0025C14.4419 13.0027 14.8898 12.5552 14.89 12.0029C14.8902 11.4506 14.4426 11.0027 13.8903 11.0025L4.77435 10.9993Z" fill="#07194B"/>
</svg>
