<svg width="16" height="16" viewBox="0 0 16 16" fill="none" xmlns="http://www.w3.org/2000/svg">
<path fill-rule="evenodd" clip-rule="evenodd" d="M5.77706 8.39844L3.52982 7.64935L3.52981 7.64935L3.52981 7.64935C1.1766 6.86495 0 6.47275 0 5.75199C0 5.03123 1.17661 4.63903 3.52982 3.85462L12.043 1.0169C13.6988 0.464969 14.5267 0.189004 14.9637 0.62602C15.4007 1.06304 15.1247 1.89093 14.5728 3.54672L11.7351 12.0599L11.7351 12.0599L11.7351 12.0599C10.9507 14.4131 10.5585 15.5897 9.83772 15.5897C9.11696 15.5897 8.72476 14.4131 7.94036 12.0599L7.19128 9.81265L11.5448 5.45909C11.9354 5.06857 11.9354 4.43541 11.5448 4.04488C11.1543 3.65436 10.5211 3.65436 10.1306 4.04488L5.77706 8.39844Z" fill="#07194B"/>
</svg>
