<svg width="13" height="14" viewBox="0 0 13 14" fill="none" xmlns="http://www.w3.org/2000/svg">
<path d="M10.2956 8.81073L12.298 10.8132C12.5673 11.0824 12.5673 11.519 12.298 11.7883C10.8423 13.244 8.53756 13.4078 6.89053 12.1726L5.69926 11.2791C4.38086 10.2903 3.2097 9.11914 2.2209 7.80074L1.32745 6.60947C0.0921746 4.96244 0.255965 2.65773 1.71175 1.20195C1.98101 0.932683 2.41758 0.932683 2.68685 1.20195L4.68927 3.20437C4.98457 3.49967 4.98457 3.97845 4.68927 4.27375L3.91711 5.0459C3.7944 5.16862 3.76398 5.35608 3.84159 5.51131C4.7389 7.30593 6.19407 8.7611 7.98869 9.65841C8.14392 9.73602 8.33138 9.7056 8.4541 9.58289L9.22625 8.81073C9.52155 8.51543 10.0003 8.51543 10.2956 8.81073Z" stroke="#CD9A32"/>
</svg>
