<svg width="14" height="12" viewBox="0 0 14 12" fill="none" xmlns="http://www.w3.org/2000/svg">
<path d="M0.53125 4.30992C0.53125 3.54737 0.531639 3.00552 0.566289 2.58142C0.600462 2.16316 0.665452 1.90366 0.770349 1.69778C0.980667 1.28501 1.31626 0.949417 1.72903 0.739099C1.93491 0.634202 2.19441 0.569212 2.61267 0.535039C3.03677 0.500389 3.57862 0.5 4.34117 0.5H9.18984C9.9524 0.5 10.4942 0.500389 10.9183 0.535039C11.3366 0.569212 11.5961 0.634202 11.802 0.739099C12.2148 0.949417 12.5503 1.28501 12.7607 1.69778C12.8656 1.90366 12.9305 2.16316 12.9647 2.58142C12.9994 3.00552 12.9998 3.54737 12.9998 4.30992V5.56698C12.9998 6.32954 12.9994 6.87139 12.9647 7.29549C12.9305 7.71375 12.8656 7.97325 12.7607 8.17913C12.5503 8.5919 12.2148 8.92749 11.802 9.13781C11.5961 9.24271 11.3366 9.3077 10.9183 9.34187C10.4942 9.37652 9.9524 9.37691 9.18984 9.37691H3.09687C2.72613 9.37691 2.37057 9.52419 2.10841 9.78634L0.53125 11.3635V4.30992Z" stroke="#CD9A32" stroke-linecap="round" stroke-linejoin="round"/>
</svg>
