<svg width="13" height="12" viewBox="0 0 13 12" fill="none" xmlns="http://www.w3.org/2000/svg">
<path d="M8.20128 6.59722C8.3273 6.59722 9.60152 7.26389 9.65753 7.36111C9.67153 7.38889 9.67153 7.44444 9.67153 7.47222C9.67153 7.66667 9.61552 7.875 9.54551 8.05556C9.36348 8.5 8.63536 8.77778 8.18728 8.77778C7.80922 8.77778 7.03909 8.44444 6.70303 8.29167C5.58285 7.79167 4.89673 6.93056 4.22462 5.94444C3.91657 5.51389 3.65053 4.97222 3.66453 4.44444V4.375C3.67853 3.86111 3.87456 3.5 4.23862 3.15278C4.36464 3.04167 4.49067 2.98611 4.64469 2.98611C4.74271 2.98611 4.84072 3 4.93874 3C5.14877 3 5.19078 3.06944 5.26079 3.26389C5.3168 3.40278 5.72287 4.45833 5.72287 4.52778C5.72287 4.83333 5.17678 5.16667 5.17678 5.33333C5.17678 5.375 5.19078 5.41667 5.21879 5.45833C5.38681 5.81944 5.72287 6.23611 6.01692 6.51389C6.38098 6.86111 6.75904 7.08333 7.19312 7.30556C7.24912 7.33333 7.30513 7.36111 7.37515 7.36111C7.59918 7.36111 7.99125 6.59722 8.20128 6.59722ZM6.60502 10.7083C9.32147 10.7083 11.5198 8.52778 11.5198 5.84722C11.5198 3.16667 9.32147 0.972222 6.60502 0.972222C3.88856 0.972222 1.7042 3.16667 1.7042 5.84722C1.7042 6.86111 2.02625 7.86111 2.64236 8.69444L2.02625 10.5L3.91657 9.90278C4.7147 10.4306 5.65286 10.7083 6.60502 10.7083ZM6.60502 0C9.86756 0 12.5 2.625 12.5 5.84722C12.5 9.06944 9.86756 11.6944 6.60502 11.6944C5.62485 11.6944 4.63069 11.4444 3.76254 10.9583L0.5 12L1.56418 8.86111C1.00408 7.95833 0.724037 6.90278 0.724037 5.84722C0.724037 2.625 3.35648 0 6.60502 0Z" fill="#CD9A32"/>
</svg>
