<svg width="13" height="12" viewBox="0 0 13 12" fill="none" xmlns="http://www.w3.org/2000/svg">
<mask id="path-1-inside-1_3_351" fill="white">
<path d="M12.5 2V3.42857C12.5 3.65132 12.5 3.76269 12.4489 3.84401C12.4223 3.88641 12.3864 3.92226 12.344 3.94891C12.2627 4 12.1513 4 11.9286 4H8.5L8.5 12L6.5 11.3333L4.5 12L2.5 11.3333L0.5 12L0.5 2.66667C0.5 1.40959 0.5 0.781049 0.890524 0.390525C1.28105 1.19209e-07 1.90959 5.49487e-08 3.16667 0L10.5 9.51016e-07C11.6046 -3.68833e-07 12.5 0.89543 12.5 2Z"/>
</mask>
<path d="M8 4C8 4.27614 8.22386 4.5 8.5 4.5C8.77615 4.5 9 4.27614 9 4H8ZM8.5 2H9H8.5ZM10.5 0.500001C10.7761 0.500001 11 0.276144 11 1.50475e-06C11 -0.276141 10.7761 -0.499999 10.5 -0.499999L10.5 0.500001ZM3.16667 2.16666C2.89053 2.16666 2.66667 2.39052 2.66667 2.66666C2.66667 2.94281 2.89053 3.16666 3.16667 3.16666L3.16667 2.16666ZM5.83334 3.16666C6.10948 3.16666 6.33334 2.9428 6.33334 2.66666C6.33334 2.39052 6.10948 2.16666 5.83334 2.16666V3.16666ZM3.83333 5.83333C4.10948 5.83333 4.33333 5.60947 4.33333 5.33333C4.33333 5.05719 4.10948 4.83333 3.83333 4.83333V5.83333ZM3.16667 4.83333C2.89053 4.83333 2.66667 5.05719 2.66667 5.33333C2.66667 5.60947 2.89053 5.83333 3.16667 5.83333V4.83333ZM3.16667 7.5C2.89053 7.5 2.66667 7.72386 2.66667 8C2.66667 8.27614 2.89053 8.5 3.16667 8.5V7.5ZM5.16667 8.5C5.44281 8.5 5.66667 8.27614 5.66667 8C5.66667 7.72386 5.44281 7.5 5.16667 7.5V8.5ZM9 4V2H8V4H9ZM9 2C9 1.17157 9.67158 0.5 10.5 0.500001L10.5 -0.499999C9.11929 -0.500001 8 0.619286 8 2L9 2ZM3.16667 3.16666L5.83334 3.16666V2.16666L3.16667 2.16666L3.16667 3.16666ZM3.83333 4.83333H3.16667V5.83333H3.83333V4.83333ZM3.16667 8.5H5.16667V7.5H3.16667V8.5ZM12.5 2H13.5H12.5ZM12.5 3.42857H11.5H12.5ZM8.5 4V3H7.5L7.5 4L8.5 4ZM0.5 2.66667H-0.5H0.5ZM0.5 12H-0.5L-0.5 13.3874L0.816228 12.9487L0.5 12ZM8.5 12L8.18378 12.9487L9.5 13.3874V12L8.5 12ZM11.9286 4V5V4ZM10.5 9.51016e-07V1H10.5L10.5 9.51016e-07ZM3.16667 0V-1H3.16667L3.16667 0ZM4.5 12L4.18377 12.9487L4.5 13.0541L4.81623 12.9487L4.5 12ZM2.5 11.3333L2.81623 10.3846L2.5 10.2792L2.18377 10.3846L2.5 11.3333ZM6.5 11.3333L6.81623 10.3846L6.5 10.2792L6.18378 10.3846L6.5 11.3333ZM12.4489 3.84401L13.2956 4.37604L13.2956 4.37604L12.4489 3.84401ZM12.344 3.94891L12.876 4.79563L12.876 4.79563L12.344 3.94891ZM11.5 2V3.42857H13.5V2H11.5ZM-0.5 2.66667L-0.5 12L1.5 12L1.5 2.66667H-0.5ZM9.5 12L9.5 4L7.5 4L7.5 12L9.5 12ZM11.9286 3H8.5V5H11.9286V3ZM10.5 -0.999999L3.16667 -1L3.16667 1L10.5 1V-0.999999ZM4.81623 11.0513L2.81623 10.3846L2.18377 12.282L4.18377 12.9487L4.81623 11.0513ZM2.18377 10.3846L0.183773 11.0513L0.816228 12.9487L2.81623 12.282L2.18377 10.3846ZM8.81623 11.0513L6.81623 10.3846L6.18378 12.282L8.18378 12.9487L8.81623 11.0513ZM6.18378 10.3846L4.18377 11.0513L4.81623 12.9487L6.81623 12.282L6.18378 10.3846ZM1.5 2.66667C1.5 2.00986 1.50212 1.61785 1.5399 1.33689C1.55721 1.20814 1.5776 1.14366 1.58954 1.11462C1.59231 1.10789 1.59447 1.10347 1.59581 1.1009C1.59714 1.09835 1.59788 1.09722 1.59795 1.09711C1.59801 1.09702 1.5978 1.09734 1.59743 1.0978C1.59705 1.09826 1.59702 1.09824 1.59763 1.09763L0.183417 -0.316582C-0.228613 0.0954493 -0.378543 0.596417 -0.442267 1.07039C-0.502124 1.5156 -0.5 2.0664 -0.5 2.66667H1.5ZM3.16667 -1C2.5664 -1 2.0156 -1.00212 1.57039 -0.942267C1.09642 -0.878543 0.595449 -0.728613 0.183417 -0.316582L1.59763 1.09763C1.59824 1.09702 1.59826 1.09705 1.5978 1.09743C1.59734 1.0978 1.59702 1.09801 1.59711 1.09795C1.59722 1.09788 1.59835 1.09714 1.6009 1.09581C1.60347 1.09447 1.60789 1.09231 1.61462 1.08955C1.64366 1.0776 1.70814 1.05721 1.83689 1.0399C2.11785 1.00212 2.50986 1 3.16667 1L3.16667 -1ZM11.5 3.42857C11.5 3.48696 11.5 3.52561 11.4994 3.55747C11.4988 3.58945 11.4978 3.59734 11.4983 3.5928C11.4988 3.58779 11.5022 3.55343 11.5163 3.5035C11.5317 3.4493 11.5581 3.38208 11.6022 3.31198L13.2956 4.37604C13.438 4.14942 13.4753 3.92657 13.4889 3.78586C13.5011 3.66053 13.5 3.52017 13.5 3.42857H11.5ZM11.9286 5C12.0202 5 12.1605 5.00109 12.2859 4.98894C12.4266 4.97529 12.6494 4.93802 12.876 4.79563L11.812 3.10218C11.8821 3.05813 11.9493 3.03168 12.0035 3.01632C12.0534 3.00217 12.0878 2.99877 12.0928 2.99828C12.0973 2.99784 12.0895 2.99878 12.0575 2.99937C12.0256 2.99996 11.987 3 11.9286 3V5ZM11.6022 3.31197C11.6555 3.22718 11.7272 3.15547 11.812 3.10218L12.876 4.79563C13.0457 4.68905 13.1891 4.54563 13.2956 4.37604L11.6022 3.31197ZM10.5 1C11.0523 1 11.5 1.44771 11.5 2H13.5C13.5 0.343146 12.1569 -1 10.5 -0.999999L10.5 1Z" fill="#CD9A32" mask="url(#path-1-inside-1_3_351)"/>
</svg>
