<svg width="18" height="18" viewBox="0 0 18 18" fill="none" xmlns="http://www.w3.org/2000/svg">
<path d="M4.75366 12.0214C4.84157 11.2251 5.14007 10.7794 5.70257 10.3224C6.50745 9.70342 7.51281 10.0535 7.51281 10.0535V7.97653C7.75727 7.96964 8.00179 7.98552 8.2435 8.02385V10.6968C8.2435 10.6968 7.23842 10.3467 6.4336 10.9659C5.87138 11.4226 5.57226 11.8688 5.48466 12.665C5.48191 13.0974 5.55608 13.6625 5.89765 14.1512C5.81316 14.1038 5.7271 14.0499 5.6394 13.9893C4.88704 13.4366 4.75 12.6074 4.75366 12.0214ZM12.3948 4.1361C11.8411 3.47235 11.6317 2.8022 11.5561 2.33143H12.2525C12.2525 2.33143 12.1137 3.5658 13.1258 4.77969L13.1398 4.79601C12.867 4.60829 12.6169 4.38672 12.3948 4.1361ZM15.75 6.01789V8.63702C15.75 8.63702 14.8613 8.59899 14.2035 8.41592C13.2851 8.15985 12.6948 7.76718 12.6948 7.76718C12.6948 7.76718 12.287 7.48718 12.2541 7.46767V12.8762C12.2541 13.1774 12.1787 13.9294 11.9489 14.5567C11.6488 15.3773 11.1858 15.9159 11.1007 16.026C11.1007 16.026 10.5375 16.754 9.54405 17.2444C8.64855 17.6867 7.86229 17.6755 7.62728 17.6867C7.62728 17.6867 6.26816 17.7456 5.04515 16.876C4.78068 16.6843 4.53381 16.4673 4.30774 16.2276L4.31385 16.2324C5.53716 17.1019 6.89597 17.043 6.89597 17.043C7.13132 17.0318 7.91753 17.043 8.81275 16.6008C9.80533 16.1105 10.3694 15.3824 10.3694 15.3824C10.4536 15.2723 10.9187 14.7337 11.2175 13.9128C11.4468 13.2859 11.5228 12.5334 11.5228 12.2323V6.82441C11.5557 6.84423 11.9632 7.12423 11.9632 7.12423C11.9632 7.12423 12.5538 7.51727 13.4722 7.77296C14.1302 7.95604 15.0188 7.99413 15.0188 7.99413V5.94173C15.3227 6.01629 15.5819 6.03647 15.75 6.01789Z" fill="#EE1D52"/>
<path d="M15.0188 5.94173V7.99413C15.0188 7.99413 14.1302 7.95604 13.4722 7.77296C12.5538 7.51727 11.9632 7.12423 11.9632 7.12423C11.9632 7.12423 11.5557 6.84423 11.5228 6.82441V12.2323C11.5228 12.5334 11.4468 13.2859 11.2175 13.9128C10.9175 14.7337 10.4545 15.2723 10.3694 15.3824C10.3694 15.3824 9.80533 16.1105 8.81275 16.6008C7.91753 17.043 7.13132 17.0318 6.89597 17.043C6.89597 17.043 5.53716 17.1019 4.31385 16.2324L4.30774 16.2276C4.17858 16.0907 4.05752 15.947 3.94412 15.7956C3.55375 15.2749 3.31446 14.6591 3.25433 14.4834V14.4812C3.15758 14.1759 2.9543 13.4427 2.98208 12.7325C3.03122 11.4796 3.4341 10.7106 3.54062 10.5179C3.82273 9.99253 4.18966 9.52243 4.62506 9.12865C5.00928 8.78877 5.44478 8.51838 5.91368 8.32853C6.4206 8.10564 6.96319 7.98613 7.51281 7.97653V10.0535C7.51281 10.0535 6.50711 9.70471 5.70257 10.3224C5.14007 10.7794 4.84157 11.2251 4.75366 12.0214C4.75 12.6074 4.88704 13.4366 5.6394 13.9893C5.7271 14.0499 5.81316 14.1038 5.89765 14.1512C6.02893 14.338 6.18868 14.5011 6.3706 14.6332C7.10494 15.1417 7.72026 15.1773 8.50714 14.847C9.03178 14.6262 9.42671 14.1285 9.60986 13.5771C9.72495 13.2328 9.72343 12.8861 9.72343 12.5277V2.33143H11.5547C11.6304 2.8022 11.8398 3.47235 12.3935 4.1361C12.6155 4.38672 12.8657 4.60829 13.1385 4.79601C13.2191 4.88722 13.6311 5.33814 14.16 5.61497C14.4335 5.75807 14.7214 5.86771 15.0188 5.94173Z" fill="black"/>
<path d="M2.52521 13.8455V13.8471L2.57065 13.9819C2.56543 13.9662 2.54854 13.9185 2.52521 13.8455Z" fill="#69C9D0"/>
<path d="M5.91368 8.32853C5.44478 8.51838 5.00928 8.78877 4.62506 9.12865C4.18952 9.52336 3.82246 9.99437 3.5407 10.5207C3.43418 10.7128 3.0313 11.4824 2.98216 12.7354C2.95438 13.4455 3.15758 14.1781 3.25433 14.4834L3.25441 14.4862C3.31545 14.6604 3.55383 15.2761 3.9442 15.7984C4.0576 15.9498 4.17917 16.0943 4.30832 16.2311C3.89451 15.931 3.52545 15.5682 3.2132 15.1545C2.82619 14.6383 2.58751 14.0289 2.52524 13.8491C2.52517 13.8478 2.52514 13.8467 2.52521 13.8455L2.52524 13.843C2.42818 13.538 2.2243 12.8045 2.25268 12.0934C2.30182 10.8405 2.70472 10.0714 2.81124 9.87874C3.09291 9.35228 3.45975 8.88121 3.89536 8.48662C4.2795 8.14662 4.71502 7.87622 5.18399 7.6865C5.47651 7.55924 5.78126 7.46539 6.09294 7.4065C6.56263 7.32053 7.04239 7.31302 7.51433 7.38441V7.97647C6.9642 7.98588 6.42105 8.10545 5.91368 8.32853Z" fill="#69C9D0"/>
<path d="M11.5561 2.33143L9.72456 2.33141V12.528C9.72456 12.8864 9.72456 13.2321 9.61105 13.5774C9.4261 14.1285 9.03263 14.6261 8.50826 14.847C7.72116 15.1785 7.10584 15.1417 6.37178 14.6332C6.18953 14.5016 6.02927 14.3394 5.89748 14.1531C6.52286 14.5029 7.08261 14.4968 7.77606 14.205C8.30014 13.9841 8.69417 13.4865 8.8785 12.9351C8.99387 12.5907 8.99235 12.2442 8.99235 11.886V1.6875H11.5211C11.5211 1.6875 11.4929 1.94099 11.5561 2.33143ZM15.0189 5.37429L15.0188 5.94173C14.7219 5.86759 14.4343 5.75793 14.1612 5.61496C13.6323 5.33813 13.2204 4.88722 13.1398 4.79601C13.2333 4.86038 13.3302 4.91891 13.4302 4.97136C14.0733 5.30804 14.7066 5.40853 15.0189 5.37429Z" fill="#69C9D0"/>
</svg>
