<svg width="17" height="17" viewBox="0 0 17 17" fill="none" xmlns="http://www.w3.org/2000/svg">
<path d="M12.549 4.5C12.549 6.70914 10.7582 8.5 8.54901 8.5C6.33988 8.5 4.54901 6.70914 4.54901 4.5C4.54901 2.29086 6.33988 0.5 8.54901 0.5C10.7582 0.5 12.549 2.29086 12.549 4.5Z" stroke="#07194B" stroke-linecap="round"/>
<path d="M1.39814 13.4479C2.03784 11.1034 4.46374 10 6.89401 10H10.204C12.6343 10 15.0602 11.1034 15.6999 13.4479C15.8311 13.9287 15.9358 14.4489 15.9952 15.0015C16.0542 15.5507 15.6013 16 15.049 16H2.04901C1.49673 16 1.04383 15.5507 1.10284 15.0015C1.16222 14.4489 1.26697 13.9287 1.39814 13.4479Z" stroke="#07194B" stroke-linecap="round"/>
</svg>
