<svg width="12" height="12" viewBox="0 0 12 12" fill="none" xmlns="http://www.w3.org/2000/svg">
<path d="M7.70128 6.59722C7.8273 6.59722 9.10152 7.26389 9.15753 7.36111C9.17153 7.38889 9.17153 7.44444 9.17153 7.47222C9.17153 7.66667 9.11552 7.875 9.04551 8.05556C8.86348 8.5 8.13536 8.77778 7.68728 8.77778C7.30922 8.77778 6.53909 8.44444 6.20303 8.29167C5.08285 7.79167 4.39673 6.93056 3.72462 5.94444C3.41657 5.51389 3.15053 4.97222 3.16453 4.44444V4.375C3.17853 3.86111 3.37456 3.5 3.73862 3.15278C3.86464 3.04167 3.99067 2.98611 4.14469 2.98611C4.24271 2.98611 4.34072 3 4.43874 3C4.64877 3 4.69078 3.06944 4.76079 3.26389C4.8168 3.40278 5.22287 4.45833 5.22287 4.52778C5.22287 4.83333 4.67678 5.16667 4.67678 5.33333C4.67678 5.375 4.69078 5.41667 4.71879 5.45833C4.88681 5.81944 5.22287 6.23611 5.51692 6.51389C5.88098 6.86111 6.25904 7.08333 6.69312 7.30556C6.74912 7.33333 6.80513 7.36111 6.87515 7.36111C7.09918 7.36111 7.49125 6.59722 7.70128 6.59722ZM6.10502 10.7083C8.82147 10.7083 11.0198 8.52778 11.0198 5.84722C11.0198 3.16667 8.82147 0.972222 6.10502 0.972222C3.38856 0.972222 1.2042 3.16667 1.2042 5.84722C1.2042 6.86111 1.52625 7.86111 2.14236 8.69444L1.52625 10.5L3.41657 9.90278C4.2147 10.4306 5.15286 10.7083 6.10502 10.7083ZM6.10502 0C9.36756 0 12 2.625 12 5.84722C12 9.06944 9.36756 11.6944 6.10502 11.6944C5.12485 11.6944 4.13069 11.4444 3.26254 10.9583L0 12L1.06418 8.86111C0.504084 7.95833 0.224037 6.90278 0.224037 5.84722C0.224037 2.625 2.85648 0 6.10502 0Z" fill="#CD9A32"/>
</svg>
