<svg width="13" height="14" viewBox="0 0 13 14" fill="none" xmlns="http://www.w3.org/2000/svg">
<path d="M6.5 9.66667V9.09548C6.5 8.61933 6.73797 8.17469 7.13415 7.91057L7.53312 7.64458C8.13718 7.24188 8.5 6.56394 8.5 5.83796V5.66667C8.5 4.5621 7.60457 3.66667 6.5 3.66667C5.39543 3.66667 4.5 4.5621 4.5 5.66667M12.5 7C12.5 10.3137 9.81371 13 6.5 13C3.18629 13 0.5 10.3137 0.5 7C0.5 3.68629 3.18629 1 6.5 1C9.81371 1 12.5 3.68629 12.5 7ZM6.83333 11C6.83333 11.1841 6.6841 11.3333 6.5 11.3333C6.31591 11.3333 6.16667 11.1841 6.16667 11C6.16667 10.8159 6.31591 10.6667 6.5 10.6667C6.6841 10.6667 6.83333 10.8159 6.83333 11Z" stroke="#CD9A32"/>
</svg>
